<svg width="123" height="30" viewBox="0 0 123 30" fill="none" xmlns="http://www.w3.org/2000/svg">
<path d="M51.3369 27.3237L53.5602 24.3035V5.66698L51.3221 2.72049L50.3062 1.35037C50.0534 0.989141 49.719 0.692765 49.33 0.485391C48.9411 0.278017 48.5087 0.165512 48.0681 0.157043H3.79268C2.71053 0.254686 1.7093 0.771391 1.00242 1.59701C0.295539 2.42263 -0.0610808 3.49186 0.00857955 4.57677V25.4232C-0.057298 26.5072 0.300673 27.5744 1.00683 28.3992C1.71298 29.2239 2.71199 29.7417 3.79268 29.8429H48.0681C48.5024 29.8429 48.9308 29.7417 49.3192 29.5474C49.7077 29.3531 50.0456 29.0709 50.3062 28.7232L51.3369 27.3237Z" fill="#F2295B"/>
<path d="M119.392 0H59.1005C58.6561 0.00738338 58.2197 0.119977 57.8269 0.328611C57.4341 0.537244 57.096 0.836017 56.8401 1.20059L55.8207 2.57905L53.5603 5.54348V24.3676L55.8207 27.4061L56.8401 28.7846C57.0961 29.1502 57.4339 29.4506 57.8264 29.6616C58.2189 29.8727 58.6553 29.9886 59.1005 30H119.392C119.81 29.9737 120.219 29.8644 120.595 29.6782C120.97 29.492 121.305 29.2328 121.58 28.9156C121.855 28.5984 122.065 28.2295 122.196 27.8305C122.328 27.4314 122.379 27.01 122.347 26.5909V3.40909C122.379 2.98997 122.328 2.56863 122.196 2.16954C122.065 1.77045 121.855 1.40159 121.58 1.08438C121.305 0.76718 120.97 0.507965 120.595 0.321807C120.219 0.135649 119.81 0.026261 119.392 0Z" fill="#524ABC"/>
<path d="M15.1634 11.8975V21.3612H11.0816V11.8975H6.91089V8.63873H19.3193V11.8975H15.1634Z" fill="#F6F3F4"/>
<path d="M28.6752 21.3613L28.1421 19.5977H23.6996L23.1665 21.3613H19.0054L23.6256 8.79584H28.3642L32.9844 21.3613H28.6752ZM24.5437 16.776H27.298L25.9653 12.3671H25.8912L24.5437 16.776Z" fill="#F6F3F4"/>
<path d="M43.9334 9.03001C44.845 9.34607 45.6515 9.90929 46.2633 10.6572C46.8434 11.4036 47.1458 12.3295 47.1186 13.2755H43.2256C43.227 13.0202 43.1626 12.7688 43.0386 12.5459C42.9146 12.323 42.7351 12.1361 42.5177 12.0033C41.9271 11.6417 41.2385 11.4744 40.5484 11.5248C39.8583 11.5752 39.2011 11.8408 38.6689 12.2844C38.4122 12.5786 38.2161 12.921 38.0921 13.2917C37.9681 13.6624 37.9185 14.054 37.9463 14.4441V15.6127C37.9185 16.0027 37.9681 16.3944 38.0921 16.7651C38.2161 17.1358 38.4122 17.4782 38.6689 17.7724C39.2015 18.2142 39.8574 18.4799 40.5465 18.5329C41.2357 18.5858 41.9242 18.4235 42.5177 18.0682C42.7303 17.9486 42.9077 17.7748 43.032 17.5645C43.1563 17.3541 43.223 17.1146 43.2256 16.87H40.3648V14.2961H47.0891V21.4261H44.9951L44.597 20.1836C43.3209 21.2082 41.7176 21.7337 40.0846 21.6628C39.2227 21.7175 38.3588 21.5934 37.5469 21.2982C36.735 21.0029 35.9925 20.5429 35.3657 19.9469C34.2239 18.5833 33.6578 16.8266 33.7879 15.0506C33.7255 14.1532 33.8537 13.2528 34.1638 12.4088C34.4739 11.5648 34.959 10.7964 35.5869 10.1542C37.0083 8.96815 38.8296 8.37505 40.6744 8.49748C41.7851 8.47751 42.8898 8.66305 43.9334 9.0448" fill="#F6F3F4"/>
<path d="M69.2919 9.17184C69.9174 9.52002 70.4342 10.0318 70.7858 10.6511C71.1372 11.3067 71.317 12.0391 71.3086 12.7813V13.018C71.317 13.7602 71.1372 14.4926 70.7858 15.1482C70.4329 15.7667 69.9164 16.2781 69.2919 16.6275C68.6451 16.9883 67.9129 17.1721 67.1706 17.16H64.1082V21.3612H60V8.63929H67.1706C67.9129 8.62725 68.6451 8.81105 69.2919 9.17184ZM64.1082 14.2458H65.7962C65.972 14.2614 66.1492 14.2405 66.3164 14.1845C66.4836 14.1284 66.6371 14.0385 66.7673 13.9204C66.8804 13.7995 66.9678 13.6573 67.0242 13.5023C67.0807 13.3473 67.1051 13.1826 67.0959 13.018V12.8701C67.1071 12.7031 67.0838 12.5356 67.0273 12.3779C66.9707 12.2202 66.8823 12.0755 66.7673 11.9529C66.6352 11.8377 66.4814 11.7497 66.3147 11.6938C66.148 11.6379 65.9718 11.6154 65.7962 11.6275H64.1082V14.2458Z" fill="#F6F3F4"/>
<path d="M73.665 8.63873H84.5422V11.6892H77.7072V13.445H83.5427V16.3615H77.7072V18.3108H84.6598V21.3612H73.665V8.63873Z" fill="#F6F3F4"/>
<path d="M95.5964 21.3612L95.0479 19.512H90.6007L90.0818 21.3612H85.9163L90.6007 8.63873H95.3295L99.8953 21.3612H95.5964ZM91.4605 16.7456H94.2029L92.8836 12.3075H92.8094L91.4605 16.7456Z" fill="#F6F3F4"/>
<path d="M110.173 8.63873H115.2L110.674 13.8765L115.288 21.3612H110.497L107.873 16.7038L105.677 18.5191V21.3612H101.623V8.63873H105.677V14.07L110.173 8.63873Z" fill="#F6F3F4"/>
</svg>
