<svg width="40" height="40" viewBox="0 0 40 40" fill="none" xmlns="http://www.w3.org/2000/svg">
<path d="M37.8974 21.204L36.1917 20.1363L3.71746 20.1363L1.58825 21.2131L0.739359 21.8426C0.515549 21.9992 0.331921 22.2064 0.203437 22.4474C0.0749531 22.6883 0.00524784 22.9562 7.68723e-07 23.2292L2.80218e-08 37.6501C0.0604973 38.3206 0.380636 38.941 0.892171 39.3789C1.40371 39.8169 2.06618 40.0378 2.73836 39.9947L36.7199 39.9947C37.3916 40.0355 38.0528 39.8137 38.5638 39.3762C39.0748 38.9387 39.3956 38.3197 39.4583 37.6501L39.4583 23.2292C39.4583 22.9601 39.3956 22.6947 39.2752 22.4541C39.1548 22.2134 38.98 22.004 38.7646 21.8426L37.8974 21.204Z" fill="#4F4ABD"/>
<path d="M15.9787 24.0632C16.5955 24.4023 17.1052 24.9007 17.4519 25.504C17.7985 26.1425 17.9758 26.8559 17.9675 27.5788V27.8093C17.9758 28.5322 17.7985 29.2455 17.4519 29.8841C17.104 30.4864 16.5946 30.9846 15.9787 31.3249C15.3408 31.6763 14.6188 31.8553 13.8868 31.8436H10.8667V35.9355H6.81543V23.5445H13.8868C14.6188 23.5328 15.3408 23.7118 15.9787 24.0632ZM10.8667 29.0052H12.5314C12.7048 29.0203 12.8795 29 13.0444 28.9454C13.2093 28.8908 13.3607 28.8032 13.489 28.6882C13.6006 28.5705 13.6868 28.432 13.7425 28.281C13.7981 28.13 13.8222 27.9696 13.8131 27.8093V27.6652C13.8242 27.5026 13.8012 27.3394 13.7454 27.1858C13.6897 27.0322 13.6024 26.8913 13.489 26.7719C13.3588 26.6597 13.2071 26.5739 13.0427 26.5195C12.8783 26.4651 12.7046 26.4432 12.5314 26.4549H10.8667V29.0052Z" fill="#F6F3F4"/>
<path d="M27.9676 23.5439H32.7538L28.4448 28.6455L32.838 35.9355H28.2764L25.7781 31.3992L23.6867 33.1673V35.9355H19.8269V23.5439H23.6867V28.8339L27.9676 23.5439Z" fill="#F6F3F4"/>
<path d="M1.75565 18.796L3.62687 20.1736L36.2392 20.1736L38.0648 18.7869L38.9137 18.1574C39.1375 18.0008 39.3212 17.7936 39.4496 17.5526C39.5781 17.3117 39.6478 17.0438 39.6531 16.7708L39.6531 2.34986C39.5926 1.67938 39.2724 1.05905 38.7609 0.621077C38.2494 0.183109 37.5869 -0.0378443 36.9147 0.00531557L2.93315 0.005315C2.26151 -0.0355012 1.6003 0.186289 1.08929 0.623807C0.578285 1.06132 0.257511 1.68028 0.194782 2.34986L0.194782 16.7708C0.194782 17.0399 0.257468 17.3053 0.377876 17.5459C0.498286 17.7866 0.673114 17.996 0.888507 18.1574L1.75565 18.796Z" fill="#F2295B"/>
<path d="M14.6446 7.51107V16.7286H10.7723V7.51107H6.81543V4.3371H18.5874V7.51107H14.6446Z" fill="#F6F3F4"/>
<path d="M29.2605 4.85208C30.1066 5.14892 30.8551 5.6779 31.423 6.38032C31.9614 7.08133 32.2421 7.95093 32.2169 8.83941H28.6035C28.6049 8.59964 28.5451 8.36358 28.43 8.15421C28.3149 7.94484 28.1483 7.76928 27.9466 7.6446C27.3983 7.30499 26.7593 7.14786 26.1187 7.1952C25.4782 7.24253 24.8682 7.49195 24.3743 7.90857C24.136 8.1849 23.954 8.50645 23.8389 8.85462C23.7238 9.20278 23.6778 9.57065 23.7036 9.93697V11.0345C23.6778 11.4008 23.7238 11.7687 23.8389 12.1169C23.954 12.465 24.136 12.7866 24.3743 13.0629C24.8686 13.4779 25.4774 13.7274 26.117 13.7772C26.7566 13.8269 27.3957 13.6745 27.9466 13.3408C28.1439 13.2284 28.3085 13.0652 28.4239 12.8676C28.5392 12.67 28.6012 12.4451 28.6035 12.2154H25.9483V9.79803H32.1895V16.4945H30.246L29.8764 15.3275C28.692 16.2898 27.2039 16.7834 25.6882 16.7168C24.8883 16.7682 24.0864 16.6516 23.3329 16.3743C22.5793 16.097 21.8901 15.665 21.3084 15.1052C20.2486 13.8246 19.7232 12.1746 19.8439 10.5066C19.7861 9.6638 19.905 8.81815 20.1928 8.02545C20.4807 7.23276 20.9309 6.51105 21.5137 5.90796C22.833 4.79398 24.5234 4.23694 26.2357 4.35192C27.2665 4.33317 28.2919 4.50743 29.2605 4.86597" fill="#F6F3F4"/>
</svg>
