<svg width="73" height="73" viewBox="0 0 73 73" fill="none" xmlns="http://www.w3.org/2000/svg">
<rect width="72.3018" height="72.3018" rx="11.5541" fill="black"/>
<path d="M9.37697 32.6281C9.37697 32.6281 9.35652 32.6997 9.00897 33.6299C8.02763 32.8462 6.36822 32.8973 6.36822 34.1103C6.36822 35.5312 9.81652 35.354 9.71089 37.8823C9.62571 39.9097 7.12467 40.38 5.2063 39.3952C5.38008 39.0408 5.55045 38.6967 5.66971 38.4139C7.12467 39.2691 8.37519 38.8841 8.58986 38.1856C9.15208 36.2843 5.21652 36.8703 5.21652 34.1853C5.21652 33.0472 6.53178 31.2924 9.37697 32.6281ZM13.367 32.2942H18.1851C18.1851 32.2942 18.1749 32.7031 18.1851 33.2755H14.5733V35.2927H17.1288C17.1186 35.7016 17.1288 36.0117 17.1288 36.2229H14.5733V38.741H18.1851V39.7019H13.3773L13.367 32.2976V32.2942ZM24.4036 32.3044C23.9845 32.2942 23.0884 32.2942 22.3353 32.2942V39.7087H23.5416V36.8976C23.8448 36.8976 24.4582 36.8771 24.9659 36.8669C25.6542 36.8465 27.4873 36.5228 27.4669 34.4851C27.4567 32.1988 24.8364 32.3112 24.407 32.301L24.4036 32.3044ZM24.3389 35.9299H23.5416V33.2551H24.2196C24.5331 33.2551 26.3765 33.1188 26.4276 34.4988C26.4924 35.8549 25.0476 35.9299 24.3355 35.9299H24.3389ZM56.5014 39.7087H57.9564L55.5405 36.3865C56.1879 36.1582 56.941 35.613 56.8456 34.3931C56.6718 32.1886 54.4638 32.3555 53.9902 32.3351C53.5915 32.3146 52.7294 32.3044 51.9866 32.3146V39.7087H53.1928V36.5875C53.5915 36.5875 53.7312 36.5773 54.3343 36.5671L56.5014 39.7121V39.7087ZM53.9356 35.7323C53.6665 35.7323 53.462 35.7323 53.1928 35.722V33.2244H53.8164C54.106 33.2244 55.6905 33.1392 55.8199 34.342C55.9801 35.7731 54.2559 35.7323 53.9322 35.7323H53.9356ZM35.9343 35.2518V32.3351H37.1099V39.7291H35.9343V36.2195H32.0226V39.7291H30.847V32.3351H32.0226V35.2484H35.9343V35.2518Z" fill="white"/>
<path fill-rule="evenodd" clip-rule="evenodd" d="M63.3674 32.3145H64.7576L67.5074 39.7393H66.2773C66.2773 39.7393 66.0081 38.9862 65.6401 37.9947L62.5462 38.0151C62.5462 38.0151 62.4167 38.4002 62.0487 39.7393H60.863L63.364 32.3145H63.3674ZM62.8256 37.1633L65.3164 37.1531L64.0557 33.4969H64.0352L62.829 37.1633H62.8256ZM44.5347 33.1732C42.7458 33.1732 41.7338 34.4476 41.7338 36.0252C41.7338 37.6028 42.7355 38.8772 44.5347 38.8772C46.3338 38.8772 47.3355 37.6028 47.3355 36.0252C47.3355 34.4476 46.3099 33.1732 44.5347 33.1732ZM44.5347 32.1067C42.0984 32.1067 40.5139 33.8615 40.5139 36.0116C40.5139 38.1617 42.0984 39.9165 44.5347 39.9165C46.971 39.9165 48.5554 38.1617 48.5554 36.0116C48.5554 33.8615 46.971 32.1067 44.5347 32.1067Z" fill="white"/>
</svg>
