<svg width="19" height="18" viewBox="0 0 19 18" fill="none" xmlns="http://www.w3.org/2000/svg">
<path d="M17.0833 13.2254L15.5208 11.6885H16.5V3.49182H7.18746L4.93746 1.27871C5.04857 0.95084 5.24649 0.691277 5.53121 0.50002C5.81593 0.308763 6.13885 0.213135 6.49996 0.213135H16.5C16.9583 0.213135 17.3507 0.373654 17.677 0.694692C18.0034 1.01573 18.1666 1.40166 18.1666 1.85248V11.6885C18.1666 12.0437 18.0694 12.3614 17.875 12.6414C17.6805 12.9215 17.4166 13.1161 17.0833 13.2254ZM16.9166 17.6722L12.5 13.3279H6.49996C6.04163 13.3279 5.64927 13.1674 5.32288 12.8463C4.99649 12.5253 4.83329 12.1394 4.83329 11.6885V5.78691L0.416626 1.44264L1.58329 0.295102L18.0833 16.5246L16.9166 17.6722ZM6.49996 11.6885H10.8333L6.49996 7.42625V11.6885ZM3.16663 16.6066C2.70829 16.6066 2.31593 16.4461 1.98954 16.125C1.66315 15.804 1.49996 15.4181 1.49996 14.9672V3.49182H3.16663V14.9672H14.8333V16.6066H3.16663Z" fill="#32334C"/>
</svg>
