<?xml version="1.0" standalone="no"?>
<!DOCTYPE svg PUBLIC "-//W3C//DTD SVG 20010904//EN"
 "http://www.w3.org/TR/2001/REC-SVG-20010904/DTD/svg10.dtd">
<svg version="1.0" xmlns="http://www.w3.org/2000/svg"
 width="512.000000pt" height="512.000000pt" viewBox="0 0 512.000000 512.000000"
 preserveAspectRatio="xMidYMid meet">

<g transform="translate(0.000000,512.000000) scale(0.100000,-0.100000)"
fill="#d82d3d" stroke="none">
<path d="M530 4790 c-12 -12 -20 -33 -20 -53 0 -29 29 -61 303 -335 323 -322
331 -328 377 -282 19 19 25 38 21 70 -2 8 -138 151 -304 318 -323 323 -330
329 -377 282z"/>
<path d="M4213 4508 c-166 -167 -302 -310 -304 -318 -4 -32 2 -51 21 -70 46
-46 54 -40 377 282 274 274 303 306 303 335 0 41 -30 73 -68 73 -22 0 -79 -52
-329 -302z"/>
<path d="M2345 4530 c-414 -75 -744 -299 -956 -647 -104 -171 -169 -374 -189
-588 -6 -66 -10 -497 -10 -1087 l0 -978 1128 0 c621 0 1238 -3 1371 -7 l242
-6 -4 1069 c-3 1043 -4 1071 -24 1164 -26 115 -73 251 -120 344 -189 376 -552
651 -964 731 -135 26 -343 29 -474 5z m492 -550 c49 -32 50 -24 -27 -732 -39
-365 -76 -680 -81 -700 -20 -77 -89 -130 -169 -130 -80 0 -149 53 -169 130
-16 61 -153 1353 -146 1379 6 27 36 55 68 65 12 4 130 6 262 5 192 -2 244 -5
262 -17z m-197 -1859 c91 -48 127 -162 78 -246 -73 -125 -243 -125 -316 0 -33
58 -27 140 14 191 39 49 88 74 144 74 25 0 61 -8 80 -19z"/>
<path d="M25 2935 c-14 -13 -25 -31 -25 -40 0 -20 19 -57 34 -67 6 -4 205 -8
442 -8 419 0 431 1 449 20 26 29 24 79 -4 102 -22 17 -50 18 -448 18 l-424 0
-24 -25z"/>
<path d="M4199 2942 c-28 -23 -30 -73 -4 -102 18 -19 30 -20 449 -20 237 0
436 4 442 8 15 10 34 47 34 67 0 9 -11 27 -25 40 l-24 25 -424 0 c-398 0 -426
-1 -448 -18z"/>
<path d="M656 739 l-26 -20 0 -184 c0 -177 1 -185 22 -205 22 -20 24 -20 1909
-20 1842 0 1887 0 1910 19 23 19 24 25 27 182 4 178 1 200 -28 229 -20 20 -41
20 -1904 20 l-1883 0 -27 -21z"/>
</g>
</svg>
