<svg width="19" height="26" viewBox="0 0 19 26" fill="none" xmlns="http://www.w3.org/2000/svg">
<path d="M18.9885 16.5937C18.9875 18.4164 19.0192 20.2391 18.9798 22.0608C18.929 24.4313 17.3966 25.9488 14.9833 25.9735C11.3466 26.0104 7.709 26.0076 4.07136 25.9754C1.57749 25.9536 0.0393394 24.4209 0.0201484 21.9585C-0.00671892 18.4183 -0.00767846 14.8762 0.0191889 11.3361C0.042218 8.29449 2.98035 6.27087 5.8849 7.30401C6.19388 7.41396 6.56234 7.89072 6.55563 8.18929C6.54891 8.48596 6.1104 8.77979 5.8398 9.05466C5.78415 9.11058 5.63638 9.07551 5.53275 9.08878C1.88839 9.56743 1.88839 9.56743 1.88839 13.2137C1.88839 16.026 1.87591 18.8372 1.89319 21.6495C1.90374 23.4532 2.55431 24.1157 4.34675 24.1252C7.77329 24.1442 11.1998 24.1423 14.6264 24.1261C16.4351 24.1176 17.0982 23.4636 17.1078 21.6788C17.125 18.2941 17.126 14.9094 17.1078 11.5247C17.0982 9.75226 16.4275 9.17219 14.6062 9.07456C13.7753 9.03001 12.3695 9.57786 12.4444 8.08597C12.5087 6.80166 13.8232 7.26704 14.6293 7.26041C17.5146 7.23482 18.9703 8.71344 18.9875 11.5958C18.9971 13.2611 18.9894 14.9274 18.9885 16.5937Z" fill="#6E2472"/>
<path d="M10.4389 3.3411C10.4389 7.33622 10.4389 11.3304 10.4379 15.3255C10.4379 15.7416 10.5617 16.2222 10.3928 16.5567C10.1981 16.9435 9.74131 17.2013 9.39875 17.514C9.1224 17.1918 8.6503 16.8923 8.60617 16.5416C8.49198 15.6193 8.56299 14.6743 8.56299 13.7379C8.56203 10.2679 8.56299 6.79785 8.56299 2.90415C7.72338 3.7155 7.20523 4.35244 6.55081 4.79318C6.17947 5.04341 5.58647 4.97043 5.09326 5.04246C5.14508 4.55717 5.01458 3.91454 5.28133 3.61313C6.35123 2.40085 7.49405 1.23597 8.72611 0.187665C9.03412 -0.073937 9.96968 -0.0587717 10.2854 0.209465C11.5184 1.25777 12.6651 2.41886 13.7359 3.63114C13.9979 3.92781 13.8511 4.57613 13.8923 5.06237C13.3991 4.97706 12.7898 5.04057 12.4376 4.77423C11.8312 4.31453 11.385 3.6501 10.8707 3.07097C10.7258 3.16102 10.5828 3.25106 10.4389 3.3411Z" fill="#6E2472"/>
</svg>
