<svg width="13" height="11" viewBox="0 0 13 11" fill="none" xmlns="http://www.w3.org/2000/svg">
<path d="M1.8624 5.94518C2.05812 5.94518 2.25383 5.94518 2.44955 5.94518C5.67584 5.94518 8.90012 5.9472 12.1264 5.94315C12.5037 5.94315 12.996 6.02631 13.0001 5.45633C13.0041 4.88635 12.5098 4.95937 12.1325 4.95937C8.90617 4.95532 5.6819 4.95735 2.4556 4.95735C2.25787 4.95735 2.06215 4.95735 1.71309 4.95735C1.931 4.72814 2.04601 4.60035 2.16707 4.47662C3.31918 3.31637 4.47128 2.15816 5.62137 0.997914C5.7283 0.890409 5.8877 0.782904 5.90788 0.657144C5.93814 0.464445 5.93411 0.184527 5.8191 0.0749931C5.70813 -0.0325117 5.4317 -0.00411415 5.238 0.0283403C5.12703 0.048624 5.0322 0.190612 4.93737 0.285947C3.40392 1.8255 1.87249 3.36708 0.343079 4.91069C-0.118973 5.37722 -0.116955 5.5253 0.349132 5.99589C1.89469 7.55167 3.44024 9.10339 4.98176 10.6592C5.22993 10.9107 5.5003 11.1764 5.83121 10.8458C6.17421 10.505 5.93411 10.2109 5.66575 9.94112C4.49953 8.77276 3.33935 7.59832 2.17111 6.43199C2.05408 6.31434 1.89267 6.24132 1.75143 6.14802C1.78775 6.08311 1.82608 6.01414 1.8624 5.94518Z" fill="white"/>
</svg>
