<svg width="15" height="15" viewBox="0 0 15 15" fill="none" xmlns="http://www.w3.org/2000/svg">
<mask id="mask0_1659_4482" style="mask-type:alpha" maskUnits="userSpaceOnUse" x="0" y="0" width="15" height="15">
<rect width="15" height="15" fill="#D9D9D9"/>
</mask>
<g mask="url(#mask0_1659_4482)">
<path d="M3.125 13.75C2.78125 13.75 2.48698 13.6276 2.24219 13.3828C1.9974 13.138 1.875 12.8438 1.875 12.5V3.75C1.875 3.40625 1.9974 3.11198 2.24219 2.86719C2.48698 2.6224 2.78125 2.5 3.125 2.5H3.75V1.25H5V2.5H10V1.25H11.25V2.5H11.875C12.2188 2.5 12.513 2.6224 12.7578 2.86719C13.0026 3.11198 13.125 3.40625 13.125 3.75V12.5C13.125 12.8438 13.0026 13.138 12.7578 13.3828C12.513 13.6276 12.2188 13.75 11.875 13.75H3.125ZM3.125 12.5H11.875V6.25H3.125V12.5ZM3.125 5H11.875V3.75H3.125V5Z" fill="currentColor"/>
</g>
</svg>
