<svg width="26" height="26" viewBox="0 0 26 26" fill="none" xmlns="http://www.w3.org/2000/svg">
    <path d="M13.0001 25.25C10.7251 25.25 8.66058 24.6868 6.80655 23.5604C4.95272 22.4342 3.49856 20.925 2.44409 19.0328V22.5127H0.694092V16.096H7.11076V17.846H3.79684C4.64034 19.5453 5.88702 20.9124 7.53688 21.9475C9.18674 22.9825 11.0078 23.5 13.0001 23.5C14.4285 23.5 15.7683 23.236 17.0196 22.7081C18.2706 22.18 19.3658 21.4594 20.3052 20.5463C21.2445 19.6332 21.9988 18.5548 22.5679 17.3111C23.1371 16.0675 23.4441 14.7276 23.489 13.2917H25.2387C25.2014 14.9489 24.8548 16.503 24.1989 17.954C23.5431 19.4047 22.6636 20.6723 21.5605 21.7567C20.4574 22.8411 19.1711 23.6944 17.7015 24.3167C16.2319 24.9389 14.6647 25.25 13.0001 25.25ZM12.1744 20.9424V19.4706C11.3204 19.2715 10.6103 18.9169 10.0441 18.4069C9.47802 17.8969 9.04392 17.2089 8.74176 16.3431L10.2179 15.7417C10.4961 16.5016 10.8945 17.079 11.4128 17.4739C11.931 17.8686 12.5185 18.066 13.1751 18.066C13.8391 18.066 14.4352 17.9003 14.9633 17.569C15.4912 17.2378 15.7552 16.7065 15.7552 15.975C15.7552 15.3662 15.5283 14.8813 15.0744 14.5202C14.6204 14.1589 13.7734 13.7508 12.5334 13.296C11.3339 12.8653 10.4686 12.383 9.93759 11.8491C9.40656 11.3151 9.14105 10.6099 9.14105 9.73333C9.14105 8.98103 9.41259 8.29221 9.95567 7.66688C10.4986 7.04174 11.2576 6.64313 12.2327 6.47104V5.05762H13.8258V6.47104C14.4809 6.52199 15.084 6.76844 15.6353 7.21042C16.1864 7.65239 16.5838 8.18371 16.8276 8.80438L15.3874 9.38333C15.1869 8.95108 14.9004 8.59175 14.5278 8.30533C14.1555 8.01892 13.6657 7.87571 13.0584 7.87571C12.333 7.87571 11.7642 8.04769 11.3522 8.39167C10.9401 8.73564 10.7341 9.18286 10.7341 9.73333C10.7341 10.2838 10.9353 10.7124 11.3376 11.019C11.7399 11.3256 12.5543 11.6884 13.7809 12.1072C15.1809 12.6128 16.1217 13.1796 16.6033 13.8076C17.085 14.4359 17.3258 15.1583 17.3258 15.975C17.3258 16.5315 17.2229 17.0198 17.0172 17.44C16.8115 17.8604 16.5427 18.2138 16.2108 18.5002C15.8786 18.7867 15.5006 19.0129 15.0765 19.179C14.6524 19.3448 14.216 19.4615 13.7675 19.529V20.9424H12.1744ZM0.761467 12.7083C0.813772 11.0138 1.17155 9.43914 1.8348 7.9845C2.49824 6.52986 3.3852 5.26412 4.49567 4.18729C5.60634 3.11026 6.89084 2.26812 8.34918 1.66087C9.80751 1.05362 11.3578 0.75 13.0001 0.75C15.2527 0.75 17.3172 1.31506 19.1936 2.44517C21.07 3.57508 22.5242 5.09739 23.5561 7.01208V3.48729H25.3061V9.90396H18.8894V8.15396H22.2033C21.3822 6.48465 20.1449 5.125 18.4913 4.075C16.8377 3.025 15.0073 2.5 13.0001 2.5C11.6016 2.5 10.2786 2.76026 9.03109 3.28079C7.78373 3.80132 6.68668 4.51435 5.73993 5.41987C4.79318 6.3256 4.02959 7.40029 3.44917 8.64396C2.86876 9.88763 2.55609 11.2424 2.51117 12.7083H0.761467Z" fill="currentColor"/>
</svg>
