<svg width="20" height="20" viewBox="0 0 20 20" fill="none" xmlns="http://www.w3.org/2000/svg">
    <path
        d="M4.593 15.5416H6.34271V7.95831H4.593V15.5416ZM9.12492 15.5416H10.8749V4.45831H9.12492V15.5416ZM13.6571 15.5416H15.4068V11.4583H13.6571V15.5416ZM2.19229 19.9166C1.60293 19.9166 1.10409 19.7125 0.695752 19.3041C0.287419 18.8958 0.083252 18.397 0.083252 17.8076V2.19235C0.083252 1.60299 0.287419 1.10415 0.695752 0.695813C1.10409 0.28748 1.60293 0.083313 2.19229 0.083313H17.8075C18.3969 0.083313 18.8958 0.28748 19.3041 0.695813C19.7124 1.10415 19.9166 1.60299 19.9166 2.19235V17.8076C19.9166 18.397 19.7124 18.8958 19.3041 19.3041C18.8958 19.7125 18.3969 19.9166 17.8075 19.9166H2.19229ZM2.19229 18.1666H17.8075C17.8974 18.1666 17.9796 18.1292 18.0543 18.0544C18.1292 17.9797 18.1666 17.8974 18.1666 17.8076V2.19235C18.1666 2.10252 18.1292 2.02027 18.0543 1.9456C17.9796 1.87074 17.8974 1.83331 17.8075 1.83331H2.19229C2.10246 1.83331 2.02021 1.87074 1.94554 1.9456C1.87068 2.02027 1.83325 2.10252 1.83325 2.19235V17.8076C1.83325 17.8974 1.87068 17.9797 1.94554 18.0544C2.02021 18.1292 2.10246 18.1666 2.19229 18.1666Z"
        fill="currentColor" />
</svg>
