<svg width="20" height="20" viewBox="0 0 20 20" fill="none" xmlns="http://www.w3.org/2000/svg">
    <path d="M7.83342 12.8333L13.7084 6.95832L12.5417 5.79166L7.83342 10.5L5.45842 8.12499L4.29175 9.29166L7.83342 12.8333ZM9.00008 17.3333C7.8473 17.3333 6.76397 17.1146 5.75008 16.6771C4.73619 16.2396 3.85425 15.6458 3.10425 14.8958C2.35425 14.1458 1.7605 13.2639 1.323 12.25C0.885498 11.2361 0.666748 10.1528 0.666748 8.99999C0.666748 7.84721 0.885498 6.76388 1.323 5.74999C1.7605 4.7361 2.35425 3.85416 3.10425 3.10416C3.85425 2.35416 4.73619 1.76041 5.75008 1.32291C6.76397 0.885406 7.8473 0.666656 9.00008 0.666656C10.1529 0.666656 11.2362 0.885406 12.2501 1.32291C13.264 1.76041 14.1459 2.35416 14.8959 3.10416C15.6459 3.85416 16.2397 4.7361 16.6772 5.74999C17.1147 6.76388 17.3334 7.84721 17.3334 8.99999C17.3334 10.1528 17.1147 11.2361 16.6772 12.25C16.2397 13.2639 15.6459 14.1458 14.8959 14.8958C14.1459 15.6458 13.264 16.2396 12.2501 16.6771C11.2362 17.1146 10.1529 17.3333 9.00008 17.3333ZM9.00008 15.6667C10.8612 15.6667 12.4376 15.0208 13.7292 13.7292C15.0209 12.4375 15.6667 10.8611 15.6667 8.99999C15.6667 7.13888 15.0209 5.56249 13.7292 4.27082C12.4376 2.97916 10.8612 2.33332 9.00008 2.33332C7.13897 2.33332 5.56258 2.97916 4.27092 4.27082C2.97925 5.56249 2.33341 7.13888 2.33341 8.99999C2.33341 10.8611 2.97925 12.4375 4.27092 13.7292C5.56258 15.0208 7.13897 15.6667 9.00008 15.6667Z" fill="currentColor"/>
</svg>
