<svg width="16" height="15" viewBox="0 0 16 15" fill="none" xmlns="http://www.w3.org/2000/svg">
<path d="M7.83337 14.7869C6.79171 14.7869 5.81601 14.5923 4.90629 14.2029C3.99657 13.8136 3.2049 13.2876 2.53129 12.625C1.85768 11.9625 1.32296 11.1838 0.927124 10.289C0.531291 9.39418 0.333374 8.43448 0.333374 7.40989C0.333374 6.3853 0.531291 5.4256 0.927124 4.53079C1.32296 3.63598 1.85768 2.85729 2.53129 2.19472C3.2049 1.53215 3.99657 1.0062 4.90629 0.616853C5.81601 0.227509 6.79171 0.0328369 7.83337 0.0328369V1.67218C6.20837 1.67218 4.8299 2.22887 3.69796 3.34226C2.56601 4.45565 2.00004 5.81153 2.00004 7.40989C2.00004 9.00825 2.56601 10.3641 3.69796 11.4775C4.8299 12.5909 6.20837 13.1476 7.83337 13.1476V14.7869ZM11.1667 11.5082L10 10.3402L12.1459 8.22956H5.33337V6.59021H12.1459L10 4.45907L11.1667 3.31153L15.3334 7.40989L11.1667 11.5082Z" fill="#32334C"/>
</svg>
