<svg width="18" height="18" viewBox="0 0 18 18" fill="none" xmlns="http://www.w3.org/2000/svg">
    <path d="M11.7498 12.9167L12.9165 11.75L9.83317 8.66666V4.83332H8.1665V9.33332L11.7498 12.9167ZM8.99984 17.3333C7.84706 17.3333 6.76373 17.1146 5.74984 16.6771C4.73595 16.2396 3.854 15.6458 3.104 14.8958C2.354 14.1458 1.76025 13.2639 1.32275 12.25C0.885254 11.2361 0.666504 10.1528 0.666504 8.99999C0.666504 7.84721 0.885254 6.76388 1.32275 5.74999C1.76025 4.7361 2.354 3.85416 3.104 3.10416C3.854 2.35416 4.73595 1.76041 5.74984 1.32291C6.76373 0.885406 7.84706 0.666656 8.99984 0.666656C10.1526 0.666656 11.2359 0.885406 12.2498 1.32291C13.2637 1.76041 14.1457 2.35416 14.8957 3.10416C15.6457 3.85416 16.2394 4.7361 16.6769 5.74999C17.1144 6.76388 17.3332 7.84721 17.3332 8.99999C17.3332 10.1528 17.1144 11.2361 16.6769 12.25C16.2394 13.2639 15.6457 14.1458 14.8957 14.8958C14.1457 15.6458 13.2637 16.2396 12.2498 16.6771C11.2359 17.1146 10.1526 17.3333 8.99984 17.3333ZM8.99984 15.6667C10.8471 15.6667 12.42 15.0174 13.7186 13.7187C15.0172 12.4201 15.6665 10.8472 15.6665 8.99999C15.6665 7.15277 15.0172 5.57985 13.7186 4.28124C12.42 2.98263 10.8471 2.33332 8.99984 2.33332C7.15262 2.33332 5.5797 2.98263 4.28109 4.28124C2.98248 5.57985 2.33317 7.15277 2.33317 8.99999C2.33317 10.8472 2.98248 12.4201 4.28109 13.7187C5.5797 15.0174 7.15262 15.6667 8.99984 15.6667Z" fill="#9C98D1"/>
</svg>
