<svg width="18" height="17" viewBox="0 0 18 17" fill="none" xmlns="http://www.w3.org/2000/svg">
<path d="M8.83333 16.6066C7.68056 16.6066 6.59722 16.3914 5.58333 15.9611C4.56944 15.5307 3.6875 14.9467 2.9375 14.209C2.1875 13.4713 1.59375 12.6038 1.15625 11.6066C0.71875 10.6093 0.5 9.54372 0.5 8.40984C0.5 7.38525 0.701389 6.38115 1.10417 5.39754C1.50694 4.41394 2.06944 3.53621 2.79167 2.76435C3.51389 1.99249 4.38194 1.37091 5.39583 0.899594C6.40972 0.428283 7.52083 0.192627 8.72917 0.192627C9.02083 0.192627 9.31944 0.206288 9.625 0.233611C9.93056 0.260933 10.2431 0.308747 10.5625 0.377053C10.4375 0.991807 10.4792 1.57241 10.6875 2.11886C10.8958 2.6653 11.2083 3.11954 11.625 3.48156C12.0417 3.84358 12.5382 4.0929 13.1146 4.22951C13.691 4.36612 14.2847 4.33197 14.8958 4.12705C14.5347 4.93306 14.5868 5.70492 15.0521 6.44263C15.5174 7.18033 16.2083 7.56285 17.125 7.59017C17.1389 7.74044 17.1493 7.88047 17.1562 8.01025C17.1632 8.14003 17.1667 8.28006 17.1667 8.43033C17.1667 9.55055 16.9479 10.6059 16.5104 11.5963C16.0729 12.5868 15.4792 13.4542 14.7292 14.1988C13.9792 14.9433 13.0972 15.5307 12.0833 15.9611C11.0694 16.3914 9.98611 16.6066 8.83333 16.6066ZM7.58333 6.7705C7.93056 6.7705 8.22569 6.65096 8.46875 6.41189C8.71181 6.17282 8.83333 5.88252 8.83333 5.54099C8.83333 5.19946 8.71181 4.90916 8.46875 4.67009C8.22569 4.43101 7.93056 4.31148 7.58333 4.31148C7.23611 4.31148 6.94097 4.43101 6.69792 4.67009C6.45486 4.90916 6.33333 5.19946 6.33333 5.54099C6.33333 5.88252 6.45486 6.17282 6.69792 6.41189C6.94097 6.65096 7.23611 6.7705 7.58333 6.7705ZM5.91667 10.8689C6.26389 10.8689 6.55903 10.7493 6.80208 10.5102C7.04514 10.2712 7.16667 9.98088 7.16667 9.63935C7.16667 9.29782 7.04514 9.00752 6.80208 8.76845C6.55903 8.52938 6.26389 8.40984 5.91667 8.40984C5.56944 8.40984 5.27431 8.52938 5.03125 8.76845C4.78819 9.00752 4.66667 9.29782 4.66667 9.63935C4.66667 9.98088 4.78819 10.2712 5.03125 10.5102C5.27431 10.7493 5.56944 10.8689 5.91667 10.8689ZM11.3333 11.6885C11.5694 11.6885 11.7674 11.61 11.9271 11.4529C12.0868 11.2958 12.1667 11.1011 12.1667 10.8689C12.1667 10.6366 12.0868 10.4419 11.9271 10.2848C11.7674 10.1277 11.5694 10.0492 11.3333 10.0492C11.0972 10.0492 10.8993 10.1277 10.7396 10.2848C10.5799 10.4419 10.5 10.6366 10.5 10.8689C10.5 11.1011 10.5799 11.2958 10.7396 11.4529C10.8993 11.61 11.0972 11.6885 11.3333 11.6885ZM8.83333 14.9672C10.5278 14.9672 12.0312 14.3934 13.3438 13.2459C14.6562 12.0984 15.375 10.6366 15.5 8.86066C14.8056 8.56011 14.2604 8.15028 13.8646 7.63115C13.4688 7.11202 13.2014 6.53142 13.0625 5.88935C11.9931 5.73907 11.0764 5.28826 10.3125 4.53689C9.54861 3.78552 9.07639 2.88388 8.89583 1.83197C7.78472 1.80465 6.80903 2.00274 5.96875 2.42623C5.12847 2.84973 4.42708 3.39276 3.86458 4.05533C3.30208 4.7179 2.87847 5.43853 2.59375 6.21722C2.30903 6.9959 2.16667 7.72678 2.16667 8.40984C2.16667 10.2268 2.81597 11.7739 4.11458 13.0512C5.41319 14.3286 6.98611 14.9672 8.83333 14.9672Z" fill="#32334C"/>
</svg>
