<svg width="20" height="20" viewBox="0 0 20 20" fill="none" xmlns="http://www.w3.org/2000/svg">
    <mask id="mask0_1659_4555" style="mask-type:alpha" maskUnits="userSpaceOnUse" x="0" y="0" width="20" height="20">
        <rect width="20" height="20" fill="currentColor"/>
    </mask>
    <g mask="url(#mask0_1659_4555)">
        <path d="M3.33317 6.66666H16.6665V4.99999H3.33317V6.66666ZM1.6665 4.99999C1.6665 4.54166 1.8297 4.1493 2.15609 3.82291C2.48248 3.49652 2.87484 3.33333 3.33317 3.33333H16.6665C17.1248 3.33333 17.5172 3.49652 17.8436 3.82291C18.17 4.1493 18.3332 4.54166 18.3332 4.99999V10H3.33317V15H6.74984V16.6667H3.33317C2.87484 16.6667 2.48248 16.5035 2.15609 16.1771C1.8297 15.8507 1.6665 15.4583 1.6665 15V4.99999ZM12.4582 18.3333L8.9165 14.7917L10.0832 13.625L12.4582 15.9583L17.1665 11.25L18.3332 12.4583L12.4582 18.3333ZM3.33317 4.99999V15V11.25V13.6042V4.99999Z" fill="currentColor"/>
    </g>
</svg>
