<svg width="15" height="15" viewBox="0 0 15 15" fill="none" xmlns="http://www.w3.org/2000/svg">
<mask id="mask0_1659_4549" style="mask-type:alpha" maskUnits="userSpaceOnUse" x="0" y="0" width="15" height="15">
<rect width="15" height="15" fill="#D9D9D9"/>
</mask>
<g mask="url(#mask0_1659_4549)">
<path d="M2.5 5H12.5V3.75H2.5V5ZM1.25 3.75C1.25 3.40625 1.3724 3.11198 1.61719 2.86719C1.86198 2.6224 2.15625 2.5 2.5 2.5H12.5C12.8438 2.5 13.138 2.6224 13.3828 2.86719C13.6276 3.11198 13.75 3.40625 13.75 3.75V7.5H2.5V11.25H5.0625V12.5H2.5C2.15625 12.5 1.86198 12.3776 1.61719 12.1328C1.3724 11.888 1.25 11.5938 1.25 11.25V3.75ZM9.34375 13.75L6.6875 11.0938L7.5625 10.2188L9.34375 11.9688L12.875 8.4375L13.75 9.34375L9.34375 13.75ZM2.5 3.75V11.25V8.4375V10.2031V3.75Z" fill="currentColor"/>
</g>
</svg>
