<svg width="13" height="15" viewBox="0 0 13 15" fill="none" xmlns="http://www.w3.org/2000/svg">
<path d="M10.1071 5.28571H11.1786C11.3207 5.28571 11.4569 5.34215 11.5574 5.44261C11.6578 5.54308 11.7143 5.67934 11.7143 5.82142V13.8571C11.7143 13.9992 11.6578 14.1355 11.5574 14.2359C11.4569 14.3364 11.3207 14.3928 11.1786 14.3928H1.53571C1.39363 14.3928 1.25737 14.3364 1.15691 14.2359C1.05644 14.1355 1 13.9992 1 13.8571V5.82142C1 5.67934 1.05644 5.54308 1.15691 5.44261C1.25737 5.34215 1.39363 5.28571 1.53571 5.28571H2.60714" stroke="#6E2472" stroke-linecap="round" stroke-linejoin="round"/>
<path d="M6.35693 1V9.57143" stroke="#6E2472" stroke-linecap="round" stroke-linejoin="round"/>
<path d="M4.21436 7.42856L6.35721 9.57142L8.50007 7.42856" stroke="#6E2472" stroke-linecap="round" stroke-linejoin="round"/>
</svg>
