<svg width="24" height="16" viewBox="0 0 24 16" fill="none" xmlns="http://www.w3.org/2000/svg">
<path d="M22.6796 6.85139C22.9639 7.1664 23.1213 7.57564 23.1213 7.99997C23.1213 8.42429 22.9639 8.83354 22.6796 9.14854C20.8796 11.0857 16.7825 14.8571 11.9996 14.8571C7.21674 14.8571 3.1196 11.0857 1.3196 9.14854C1.0353 8.83354 0.87793 8.42429 0.87793 7.99997C0.87793 7.57564 1.0353 7.1664 1.3196 6.85139C3.1196 4.91425 7.21674 1.14282 11.9996 1.14282C16.7825 1.14282 20.8796 4.91425 22.6796 6.85139Z" stroke="black" stroke-width="1.71429" stroke-linecap="round" stroke-linejoin="round"/>
<path d="M11.9999 11.4284C13.8934 11.4284 15.4284 9.89341 15.4284 7.99986C15.4284 6.10631 13.8934 4.57129 11.9999 4.57129C10.1063 4.57129 8.57129 6.10631 8.57129 7.99986C8.57129 9.89341 10.1063 11.4284 11.9999 11.4284Z" stroke="black" stroke-width="1.71429" stroke-linecap="round" stroke-linejoin="round"/>
</svg>
