<svg width="15" height="15" viewBox="0 0 15 15" fill="none" xmlns="http://www.w3.org/2000/svg">
<mask id="mask0_1757_6855" style="mask-type:alpha" maskUnits="userSpaceOnUse" x="0" y="0" width="15" height="15">
<rect width="15" height="15" fill="#D9D9D9"/>
</mask>
<g mask="url(#mask0_1757_6855)">
<path d="M8.79618 3.89809C8.66737 3.89809 8.51097 3.95789 8.32696 4.07749C8.14296 4.1971 8.05095 4.3765 8.05095 4.61571V5.33333H10.2314V8.20382H8.05095V14H5.18047V8.20382H3V5.33333H5.18047V3.89809C5.18047 3.53008 5.26327 3.17127 5.42887 2.82166C5.59448 2.47205 5.82909 2.16384 6.1327 1.89703C6.43631 1.63022 6.79052 1.41401 7.19533 1.24841C7.60014 1.0828 8.04175 1 8.52017 1H10.949V3.89809H8.79618Z" fill="currentColor"/>
</g>
</svg>
