<svg width="15" height="15" viewBox="0 0 15 15" fill="none" xmlns="http://www.w3.org/2000/svg">
<mask id="mask0_1757_6851" style="mask-type:alpha" maskUnits="userSpaceOnUse" x="0" y="0" width="15" height="15">
<rect width="15" height="15" fill="#D9D9D9"/>
</mask>
<g mask="url(#mask0_1757_6851)">
<path d="M13.7405 7.64769C13.7405 7.18678 13.6991 6.7436 13.6223 6.31815H7.50049V8.83541H10.9987C10.845 9.64495 10.3841 10.3304 9.69275 10.7913V12.4281H11.8023C13.0314 11.2936 13.7405 9.62722 13.7405 7.64769Z" fill="currentColor"/>
<path d="M7.49948 14C9.25447 14 10.7258 13.4209 11.8013 12.4282L9.69174 10.7914C9.11265 11.1814 8.37402 11.4177 7.49948 11.4177C5.80949 11.4177 4.37358 10.2773 3.85949 8.74094H1.69678V10.4191C2.76632 12.5405 4.95858 14 7.49948 14Z" fill="currentColor"/>
<path d="M3.85999 8.73502C3.72999 8.34502 3.65317 7.93138 3.65317 7.50002C3.65317 7.06866 3.72999 6.65503 3.85999 6.26503V4.58685H1.69727C1.25409 5.46139 1 6.44821 1 7.50002C1 8.55184 1.25409 9.53865 1.69727 10.4132L3.38135 9.10138L3.85999 8.73502Z" fill="currentColor"/>
<path d="M7.49948 3.58817C8.45675 3.58817 9.30765 3.91908 9.9872 4.55726L11.8486 2.6959C10.7199 1.64409 9.25447 1 7.49948 1C4.95858 1 2.76632 2.45954 1.69678 4.5868L3.8595 6.26498C4.37358 4.72862 5.80949 3.58817 7.49948 3.58817Z" fill="currentColor"/>
</g>
</svg>
