<svg width="20" height="20" viewBox="0 0 20 20" fill="none" xmlns="http://www.w3.org/2000/svg">
    <path fill-rule="evenodd" clip-rule="evenodd" d="M10 18C14.4183 18 18 14.4183 18 10C18 5.58172 14.4183 2 10 2C5.58172 2 2 5.58172 2 10C2 14.4183 5.58172 18 10 18ZM10 20C15.5228 20 20 15.5228 20 10C20 4.47715 15.5228 0 10 0C4.47715 0 0 4.47715 0 10C0 15.5228 4.47715 20 10 20Z" fill="currentColor"/>
    <path d="M9 15H11V9H9V15ZM10 7C10.2833 7 10.5208 6.90417 10.7125 6.7125C10.9042 6.52083 11 6.28333 11 6C11 5.71667 10.9042 5.47917 10.7125 5.2875C10.5208 5.09583 10.2833 5 10 5C9.71667 5 9.47917 5.09583 9.2875 5.2875C9.09583 5.47917 9 5.71667 9 6C9 6.28333 9.09583 6.52083 9.2875 6.7125C9.47917 6.90417 9.71667 7 10 7Z" fill="currentColor"/>
</svg>
