<svg width="20" height="20" viewBox="0 0 20 20" fill="none" xmlns="http://www.w3.org/2000/svg">
<path d="M7.52763 8.36502C7.52763 8.25672 7.54897 8.14949 7.59044 8.04945C7.63192 7.94942 7.6927 7.85854 7.76932 7.78201C7.84594 7.70548 7.9369 7.6448 8.03699 7.60345C8.13707 7.5621 8.24433 7.54088 8.35263 7.54102H10.0036C10.2222 7.54102 10.4318 7.62783 10.5863 7.78236C10.7408 7.93689 10.8276 8.14648 10.8276 8.36502V12.486H12.4736C12.6923 12.486 12.902 12.5729 13.0566 12.7275C13.2113 12.8821 13.2981 13.0918 13.2981 13.3105C13.2981 13.5292 13.2113 13.7389 13.0566 13.8935C12.902 14.0481 12.6923 14.135 12.4736 14.135H7.52763C7.30895 14.135 7.09924 14.0481 6.94462 13.8935C6.78999 13.7389 6.70313 13.5292 6.70312 13.3105C6.70312 13.0918 6.78999 12.8821 6.94462 12.7275C7.09924 12.5729 7.30895 12.486 7.52763 12.486H9.17662V9.18602H8.35263C8.13443 9.18628 7.92504 9.1 7.77038 8.94609C7.61572 8.79218 7.52842 8.58321 7.52763 8.36502Z" fill="#949292"/>
<path d="M9.58366 6.64607C9.82807 6.64607 10.067 6.57361 10.2702 6.43784C10.4735 6.30207 10.6319 6.10909 10.7255 5.8833C10.8191 5.65751 10.8436 5.40904 10.796 5.16931C10.7484 4.92958 10.6308 4.70934 10.458 4.53644C10.2852 4.36354 10.0651 4.24575 9.8254 4.19794C9.58571 4.15014 9.33722 4.17447 9.11135 4.26787C8.88549 4.36127 8.69238 4.51953 8.55645 4.72266C8.42051 4.92579 8.34785 5.16466 8.34766 5.40907C8.34753 5.57147 8.3794 5.7323 8.44145 5.88238C8.50351 6.03245 8.59453 6.16882 8.70932 6.2837C8.8241 6.39858 8.96041 6.48971 9.11043 6.55189C9.26045 6.61407 9.42126 6.64607 9.58366 6.64607Z" fill="#949292"/>
<path fill-rule="evenodd" clip-rule="evenodd" d="M0 10C0 8.02219 0.58649 6.08879 1.6853 4.4443C2.78412 2.79981 4.3459 1.51809 6.17317 0.761209C8.00043 0.00433284 10.0111 -0.193701 11.9509 0.192152C13.8907 0.578004 15.6725 1.53041 17.0711 2.92894C18.4696 4.32746 19.422 6.10929 19.8079 8.0491C20.1937 9.98891 19.9957 11.9996 19.2388 13.8268C18.4819 15.6541 17.2002 17.2159 15.5557 18.3147C13.9112 19.4135 11.9778 20 10 20C7.34784 20 4.8043 18.9464 2.92893 17.0711C1.05357 15.1957 0 12.6522 0 10ZM10 1.667C8.35189 1.667 6.74079 2.15573 5.37043 3.07137C4.00008 3.98701 2.93202 5.28845 2.30131 6.8111C1.67061 8.33376 1.50559 10.0092 1.82712 11.6257C2.14865 13.2421 2.94229 14.7269 4.10768 15.8923C5.27307 17.0577 6.75787 17.8514 8.37431 18.1729C9.99076 18.4944 11.6662 18.3294 13.1889 17.6987C14.7116 17.068 16.013 15.9999 16.9286 14.6296C17.8443 13.2592 18.333 11.6481 18.333 10C18.333 7.78996 17.4551 5.67042 15.8923 4.10768C14.3296 2.54494 12.21 1.667 10 1.667Z" fill="#949292"/>
</svg>
