<svg width="16" height="16" viewBox="0 0 16 16" fill="none" xmlns="http://www.w3.org/2000/svg">
    <path d="M8.00005 1.70319C10.0537 1.70319 10.2917 1.70999 11.1009 1.75079C11.849 1.7848 12.257 1.9072 12.529 2.016C12.8894 2.15201 13.141 2.32201 13.413 2.58722C13.685 2.85923 13.8482 3.11083 13.9842 3.47124C14.0862 3.74325 14.2154 4.15126 14.2494 4.89928C14.2834 5.70851 14.297 5.95331 14.297 8.00017C14.297 10.047 14.2902 10.2918 14.2494 11.1011C14.2154 11.8491 14.093 12.2571 13.9842 12.5291C13.8482 12.8895 13.6782 13.1411 13.413 13.4131C13.1478 13.6851 12.8894 13.8483 12.529 13.9843C12.257 14.0863 11.849 14.2156 11.1009 14.2496C10.2917 14.2836 10.0469 14.2972 8.00005 14.2972C5.95319 14.2972 5.70839 14.2904 4.89917 14.2496C4.15114 14.2156 3.74313 14.0931 3.47112 13.9843C3.11071 13.8483 2.85911 13.6783 2.5871 13.4131C2.31509 13.1411 2.15188 12.8895 2.01588 12.5291C1.91388 12.2571 1.78467 11.8491 1.75067 11.1011C1.71667 10.2918 1.70307 10.047 1.70307 8.00017C1.70307 5.95331 1.70987 5.70851 1.75067 4.89928C1.78467 4.15126 1.90708 3.74325 2.01588 3.47124C2.15188 3.11083 2.32189 2.85923 2.5871 2.58722C2.85911 2.31521 3.11071 2.15201 3.47112 2.016C3.74313 1.914 4.15114 1.7848 4.89917 1.75079C5.70839 1.71679 5.95319 1.70319 8.00005 1.70319ZM8.00005 0.322754C5.91239 0.322754 5.65398 0.329554 4.83116 0.370355C4.01514 0.404356 3.45752 0.54036 2.96791 0.723965C2.46469 0.921171 2.03628 1.17958 1.60787 1.60799C1.17946 2.0364 0.921052 2.46482 0.723846 2.96803C0.533441 3.45764 0.404234 4.01526 0.370233 4.83128C0.329432 5.64731 0.322632 5.91251 0.322632 8.00017C0.322632 10.0878 0.329432 10.3462 0.370233 11.1691C0.404234 11.9851 0.540241 12.5427 0.723846 13.0323C0.921052 13.5355 1.17946 13.9639 1.60787 14.3924C2.03628 14.8208 2.46469 15.0792 2.96791 15.2764C3.45752 15.4668 4.01514 15.596 4.83116 15.63C5.64718 15.664 5.91239 15.6776 8.00005 15.6776C10.0877 15.6776 10.3461 15.6708 11.1689 15.63C11.985 15.596 12.5426 15.46 13.0322 15.2764C13.5354 15.0792 13.9638 14.8208 14.3922 14.3924C14.8206 13.9639 15.0791 13.5355 15.2763 13.0323C15.4667 12.5427 15.5959 11.9851 15.6299 11.1691C15.6639 10.353 15.6775 10.0878 15.6775 8.00017C15.6775 5.91251 15.6707 5.65411 15.6299 4.83128C15.5959 4.01526 15.4599 3.45764 15.2763 2.96803C15.0791 2.46482 14.8206 2.0364 14.3922 1.60799C13.9638 1.17958 13.5354 0.921171 13.0322 0.723965C12.5426 0.53356 11.985 0.404356 11.1689 0.370355C10.3529 0.336354 10.0877 0.322754 8.00005 0.322754Z" fill="white"/>
    <path d="M8.00051 4.05615C5.82445 4.05615 4.0564 5.8242 4.0564 8.00026C4.0564 10.1763 5.82445 11.9444 8.00051 11.9444C10.1766 11.9444 11.9446 10.1763 11.9446 8.00026C11.9446 5.8242 10.1766 4.05615 8.00051 4.05615ZM8.00051 10.5571C6.58607 10.5571 5.44364 9.4079 5.44364 8.00026C5.44364 6.59262 6.59287 5.44339 8.00051 5.44339C9.40815 5.44339 10.5574 6.59262 10.5574 8.00026C10.5574 9.4079 9.40815 10.5571 8.00051 10.5571Z" fill="white"/>
    <path d="M13.0188 3.89944C13.0188 4.40945 12.604 4.82426 12.094 4.82426C11.584 4.82426 11.1692 4.40945 11.1692 3.89944C11.1692 3.38942 11.584 2.97461 12.094 2.97461C12.604 2.97461 13.0188 3.38942 13.0188 3.89944Z" fill="white"/>
</svg>
