<svg width="16" height="16" viewBox="0 0 16 16" fill="none" xmlns="http://www.w3.org/2000/svg">
    <path d="M3.79383 5.43652H0.627686V15.6707H3.79383V5.43652Z" fill="white"/>
    <path d="M2.19556 4.09834C3.22864 4.09834 4.06849 3.25106 4.06849 2.21055C4.06849 1.17003 3.22864 0.322754 2.19556 0.322754C1.16248 0.322754 0.322632 1.17003 0.322632 2.21055C0.322632 3.25106 1.16248 4.09834 2.19556 4.09834Z" fill="white"/>
    <path d="M8.8623 10.3042C8.8623 8.86234 9.52377 8.00763 10.7947 8.00763C11.9616 8.00763 12.519 8.83261 12.519 10.3042V15.6777H15.6702V9.19679C15.6702 6.45429 14.1169 5.13135 11.9467 5.13135C9.77647 5.13135 8.8623 6.8259 8.8623 6.8259V5.4435H5.82251V15.6777H8.8623V10.3042Z" fill="white"/>
</svg>
