<svg width="13" height="13" viewBox="0 0 13 13" fill="none" xmlns="http://www.w3.org/2000/svg">
    <path d="M2.125 12.125C1.78125 12.125 1.48698 12.0026 1.24219 11.7578C0.997396 11.513 0.875 11.2188 0.875 10.875V2.125C0.875 1.78125 0.997396 1.48698 1.24219 1.24219C1.48698 0.997396 1.78125 0.875 2.125 0.875H6.5V2.125H2.125V10.875H10.875V6.5H12.125V10.875C12.125 11.2188 12.0026 11.513 11.7578 11.7578C11.513 12.0026 11.2188 12.125 10.875 12.125H2.125ZM5.0625 8.8125L4.1875 7.9375L10 2.125H7.75V0.875H12.125V5.25H10.875V3L5.0625 8.8125Z" fill="#4237DA"/>
</svg>
