<svg width="13" height="12" viewBox="0 0 13 12" fill="none" xmlns="http://www.w3.org/2000/svg">
    <path d="M11.25 11.625L7.3125 7.6875C7 7.9375 6.64062 8.13542 6.23438 8.28125C5.82812 8.42708 5.39583 8.5 4.9375 8.5C3.80208 8.5 2.84115 8.10677 2.05469 7.32031C1.26823 6.53385 0.875 5.57292 0.875 4.4375C0.875 3.30208 1.26823 2.34115 2.05469 1.55469C2.84115 0.768229 3.80208 0.375 4.9375 0.375C6.07292 0.375 7.03385 0.768229 7.82031 1.55469C8.60677 2.34115 9 3.30208 9 4.4375C9 4.89583 8.92708 5.32812 8.78125 5.73438C8.63542 6.14062 8.4375 6.5 8.1875 6.8125L12.125 10.75L11.25 11.625ZM4.9375 7.25C5.71875 7.25 6.38281 6.97656 6.92969 6.42969C7.47656 5.88281 7.75 5.21875 7.75 4.4375C7.75 3.65625 7.47656 2.99219 6.92969 2.44531C6.38281 1.89844 5.71875 1.625 4.9375 1.625C4.15625 1.625 3.49219 1.89844 2.94531 2.44531C2.39844 2.99219 2.125 3.65625 2.125 4.4375C2.125 5.21875 2.39844 5.88281 2.94531 6.42969C3.49219 6.97656 4.15625 7.25 4.9375 7.25Z" fill="#7A7B92"/>
</svg>
