<svg width="18" height="18" viewBox="0 0 18 18" fill="none" xmlns="http://www.w3.org/2000/svg">
    <path d="M16.8332 10.875L10.8748 16.8333C10.7082 17 10.5207 17.125 10.3123 17.2083C10.104 17.2917 9.89567 17.3333 9.68734 17.3333C9.479 17.3333 9.27067 17.2917 9.06234 17.2083C8.854 17.125 8.6665 17 8.49984 16.8333L1.14567 9.47916C0.992893 9.32638 0.874837 9.14929 0.791504 8.94791C0.708171 8.74652 0.666504 8.53471 0.666504 8.31249V2.33332C0.666504 1.87499 0.829698 1.48263 1.15609 1.15624C1.48248 0.829851 1.87484 0.666656 2.33317 0.666656H8.31234C8.53456 0.666656 8.74984 0.711795 8.95817 0.802073C9.1665 0.892351 9.34706 1.01388 9.49984 1.16666L16.8332 8.52082C16.9998 8.68749 17.1214 8.87499 17.1978 9.08332C17.2741 9.29166 17.3123 9.49999 17.3123 9.70832C17.3123 9.91666 17.2741 10.1215 17.1978 10.3229C17.1214 10.5243 16.9998 10.7083 16.8332 10.875ZM9.68734 15.6667L15.6457 9.70832L8.2915 2.33332H2.33317V8.29166L9.68734 15.6667ZM4.4165 5.66666C4.76373 5.66666 5.05887 5.54513 5.30192 5.30207C5.54498 5.05902 5.6665 4.76388 5.6665 4.41666C5.6665 4.06943 5.54498 3.7743 5.30192 3.53124C5.05887 3.28818 4.76373 3.16666 4.4165 3.16666C4.06928 3.16666 3.77414 3.28818 3.53109 3.53124C3.28803 3.7743 3.1665 4.06943 3.1665 4.41666C3.1665 4.76388 3.28803 5.05902 3.53109 5.30207C3.77414 5.54513 4.06928 5.66666 4.4165 5.66666Z" fill="#9C98D1"/>
</svg>
