<svg width="18" height="17" viewBox="0 0 18 17" fill="none" xmlns="http://www.w3.org/2000/svg">
<path d="M5.66663 16.6066C5.20829 16.6066 4.81593 16.4461 4.48954 16.125C4.16315 15.804 3.99996 15.4181 3.99996 14.9672C3.99996 14.5164 4.16315 14.1305 4.48954 13.8094C4.81593 13.4884 5.20829 13.3279 5.66663 13.3279C6.12496 13.3279 6.51732 13.4884 6.84371 13.8094C7.1701 14.1305 7.33329 14.5164 7.33329 14.9672C7.33329 15.4181 7.1701 15.804 6.84371 16.125C6.51732 16.4461 6.12496 16.6066 5.66663 16.6066ZM14 16.6066C13.5416 16.6066 13.1493 16.4461 12.8229 16.125C12.4965 15.804 12.3333 15.4181 12.3333 14.9672C12.3333 14.5164 12.4965 14.1305 12.8229 13.8094C13.1493 13.4884 13.5416 13.3279 14 13.3279C14.4583 13.3279 14.8507 13.4884 15.177 13.8094C15.5034 14.1305 15.6666 14.5164 15.6666 14.9672C15.6666 15.4181 15.5034 15.804 15.177 16.125C14.8507 16.4461 14.4583 16.6066 14 16.6066ZM4.95829 3.49182L6.95829 7.59018H12.7916L15.0833 3.49182H4.95829ZM4.16663 1.85248H16.4583C16.7777 1.85248 17.0208 1.99251 17.1875 2.27256C17.3541 2.55262 17.3611 2.83609 17.2083 3.12297L14.25 8.36887C14.0972 8.6421 13.8923 8.85385 13.6354 9.00412C13.3784 9.15439 13.0972 9.22953 12.7916 9.22953H6.58329L5.66663 10.8689H15.6666V12.5082H5.66663C5.04163 12.5082 4.5694 12.2384 4.24996 11.6988C3.93052 11.1592 3.91663 10.623 4.20829 10.0902L5.33329 8.08199L2.33329 1.85248H0.666626V0.213135H3.37496L4.16663 1.85248Z" fill="#32334C"/>
</svg>
