<svg width="24" height="16" viewBox="0 0 24 16" fill="none" xmlns="http://www.w3.org/2000/svg">
<path d="M22.6806 6.85142C22.9649 7.16643 23.1222 7.57567 23.1222 8C23.1222 8.42432 22.9649 8.83357 22.6806 9.14857C20.8806 11.0857 16.7834 14.8571 12.0006 14.8571C7.21772 14.8571 3.12057 11.0857 1.32057 9.14857C1.03628 8.83357 0.878906 8.42432 0.878906 8C0.878906 7.57567 1.03628 7.16643 1.32057 6.85142C3.12057 4.91428 7.21772 1.14285 12.0006 1.14285C16.7834 1.14285 20.8806 4.91428 22.6806 6.85142Z" stroke="#ADADAD" stroke-width="1.71429" stroke-linecap="round" stroke-linejoin="round"/>
<path d="M12.0008 11.4286C13.8944 11.4286 15.4294 9.89355 15.4294 8C15.4294 6.10645 13.8944 4.57143 12.0008 4.57143C10.1073 4.57143 8.57227 6.10645 8.57227 8C8.57227 9.89355 10.1073 11.4286 12.0008 11.4286Z" stroke="#ADADAD" stroke-width="1.71429" stroke-linecap="round" stroke-linejoin="round"/>
</svg>
