<svg width="20" height="20" viewBox="0 0 20 20" fill="none" xmlns="http://www.w3.org/2000/svg">
    <mask id="mask0_1659_4554" style="mask-type:alpha" maskUnits="userSpaceOnUse" x="0" y="0" width="20" height="20">
        <rect width="20" height="20" fill="#D9D9D9"/>
    </mask>
    <g mask="url(#mask0_1659_4554)">
        <path d="M13.9165 12.0833L17.0832 9.37499L19.5832 9.58332L15.9165 12.7708L16.9998 17.5L14.8748 16.2083L13.9165 12.0833ZM11.9582 5.99999L11.0832 3.95832L12.0415 1.66666L13.9582 6.18749L11.9582 5.99999ZM6.12484 14.0208L8.74984 12.4375L11.3748 14.0417L10.6873 11.0417L12.9998 9.04166L9.95817 8.77082L8.74984 5.93749L7.5415 8.74999L4.49984 9.02082L6.81234 11.0417L6.12484 14.0208ZM3.604 17.5L4.95817 11.6458L0.416504 7.70832L6.4165 7.18749L8.74984 1.66666L11.0832 7.18749L17.0832 7.70832L12.5415 11.6458L13.8957 17.5L8.74984 14.3958L3.604 17.5Z" fill="#9C98D1"/>
    </g>
</svg>
