<svg width="15" height="15" viewBox="0 0 15 15" fill="none" xmlns="http://www.w3.org/2000/svg">
<path d="M10.8867 9.19248L12.5792 8.76936L13.0023 10.4618" stroke="#B1BE4E" stroke-linecap="round" stroke-linejoin="round"/>
<path d="M12.5787 8.76936C12.2029 9.83445 11.5201 10.7644 10.6166 11.4421C9.713 12.1198 8.62904 12.5148 7.50131 12.5774C6.45884 12.5776 5.44157 12.2569 4.58769 11.6589C3.73381 11.0609 3.08469 10.2145 2.72852 9.23479" stroke="#B1BE4E" stroke-linecap="round" stroke-linejoin="round"/>
<path d="M4.1156 5.80752L2.42312 6.23064L2 4.53816" stroke="#B1BE4E" stroke-linecap="round" stroke-linejoin="round"/>
<path d="M2.42188 6.23064C3.13272 4.28429 5.31602 2.42256 7.49931 2.42256C8.54686 2.4255 9.56786 2.75239 10.4223 3.3584C11.2768 3.96441 11.9229 4.81987 12.2721 5.80752" stroke="#B1BE4E" stroke-linecap="round" stroke-linejoin="round"/>
</svg>
