<svg width="29" height="29" viewBox="0 0 29 29" fill="none" xmlns="http://www.w3.org/2000/svg">
    <rect x="0.5" y="0.5" width="28" height="28" rx="3.5" stroke="#4237DA"/>
    <mask id="mask0_1636_239" style="mask-type:alpha" maskUnits="userSpaceOnUse" x="7" y="7" width="15" height="15">
        <rect x="7" y="7" width="15" height="15" fill="#D9D9D9"/>
    </mask>
    <g mask="url(#mask0_1636_239)">
        <path d="M11.625 20.75L10.75 19.875L15.0625 15.5469L17.25 17.7344L20.4844 14.5L21.375 15.3906L17.25 19.5L15.0625 17.3125L11.625 20.75ZM9.5 20.125C9.15625 20.125 8.86198 20.0026 8.61719 19.7578C8.3724 19.513 8.25 19.2188 8.25 18.875V10.125C8.25 9.78125 8.3724 9.48698 8.61719 9.24219C8.86198 8.9974 9.15625 8.875 9.5 8.875H18.25C18.5938 8.875 18.888 8.9974 19.1328 9.24219C19.3776 9.48698 19.5 9.78125 19.5 10.125V12.75H9.5V20.125ZM9.5 11.5H18.25V10.125H9.5V11.5Z" fill="#4237DA"/>
    </g>
</svg>
