<svg width="17" height="17" viewBox="0 0 17 17" fill="none" xmlns="http://www.w3.org/2000/svg">
<path d="M15.8191 8.85095L15.1071 8.40526L1.55174 8.40526L0.662967 8.85476L0.308623 9.11751C0.2152 9.18288 0.13855 9.26938 0.0849186 9.36996C0.0312869 9.47055 0.00219055 9.58237 3.2088e-07 9.69633L1.16968e-08 15.7159C0.0252528 15.9958 0.158885 16.2547 0.37241 16.4375C0.585934 16.6203 0.862462 16.7126 1.14305 16.6946L15.3276 16.6946C15.608 16.7116 15.884 16.619 16.0973 16.4364C16.3106 16.2538 16.4445 15.9954 16.4707 15.7159L16.4707 9.69633C16.4707 9.58401 16.4445 9.47323 16.3942 9.37276C16.344 9.2723 16.271 9.18491 16.1811 9.11751L15.8191 8.85095Z" fill="white"/>
<path d="M6.66966 10.0444C6.92714 10.1859 7.13987 10.394 7.28461 10.6458C7.42927 10.9123 7.50327 11.2101 7.49983 11.5118V11.6081C7.50327 11.9098 7.42927 12.2076 7.28461 12.4741C7.13936 12.7256 6.92675 12.9335 6.66966 13.0755C6.4034 13.2222 6.10201 13.297 5.79645 13.2921H4.53582V15.0001H2.84473V9.82786H5.79645C6.10201 9.82297 6.4034 9.8977 6.66966 10.0444ZM4.53582 12.1073H5.2307C5.30307 12.1136 5.37599 12.1051 5.44481 12.0823C5.51364 12.0595 5.57685 12.023 5.63041 11.9749C5.67698 11.9258 5.71296 11.868 5.73621 11.805C5.75945 11.7419 5.76948 11.675 5.7657 11.6081V11.5479C5.77032 11.48 5.76071 11.4119 5.73744 11.3478C5.71418 11.2837 5.67776 11.2249 5.63041 11.1751C5.57606 11.1282 5.51273 11.0924 5.44412 11.0697C5.37551 11.047 5.30296 11.0378 5.2307 11.0427H4.53582V12.1073Z" fill="#4237DA"/>
<path d="M11.674 9.82764H13.6718L11.8732 11.9571L13.707 15.0001H11.8029L10.76 13.1066L9.88704 13.8446V15.0001H8.27588V9.82764H9.88704V12.0358L11.674 9.82764Z" fill="#4237DA"/>
<path d="M0.732637 7.84582L1.51372 8.42083L15.1268 8.42083L15.8888 7.84202L16.2431 7.57927C16.3366 7.5139 16.4132 7.4274 16.4668 7.32681C16.5205 7.22623 16.5496 7.1144 16.5518 7.00045L16.5518 0.980876C16.5265 0.701007 16.3929 0.442066 16.1793 0.25925C15.9658 0.0764334 15.6893 -0.015797 15.4087 0.00221882L1.22415 0.00221859C0.943791 -0.0148189 0.667791 0.0777608 0.454487 0.260389C0.24118 0.443017 0.107285 0.701383 0.0810985 0.980875L0.0810983 7.00045C0.0810982 7.11277 0.107265 7.22355 0.157526 7.32402C0.207786 7.42448 0.280763 7.51187 0.370672 7.57926L0.732637 7.84582Z" fill="#F2295B"/>
<path d="M6.11279 3.13542V6.98302H4.49639V3.13542H2.84473V1.81055H7.75857V3.13542H6.11279Z" fill="#F6F3F4"/>
<path d="M12.2136 2.02551C12.5668 2.14942 12.8793 2.37023 13.1163 2.66343C13.341 2.95604 13.4582 3.31903 13.4477 3.6899H11.9394C11.94 3.58981 11.915 3.49128 11.867 3.40389C11.8189 3.31649 11.7494 3.24321 11.6652 3.19116C11.4363 3.0494 11.1696 2.98382 10.9022 3.00357C10.6348 3.02333 10.3802 3.12745 10.174 3.30135C10.0746 3.4167 9.99861 3.55092 9.95056 3.69625C9.90251 3.84158 9.88332 3.99514 9.89409 4.14804V4.60618C9.88332 4.75909 9.90251 4.91265 9.95056 5.05798C9.99861 5.20331 10.0746 5.33753 10.174 5.45288C10.3804 5.6261 10.6345 5.73025 10.9015 5.75101C11.1685 5.77178 11.4352 5.70815 11.6652 5.56886C11.7475 5.52195 11.8163 5.45383 11.8644 5.37135C11.9126 5.28888 11.9384 5.19498 11.9394 5.09912H10.8311V4.09005H13.4363V6.88529H12.625L12.4707 6.39816C11.9763 6.79983 11.3552 7.00588 10.7225 6.97808C10.3886 6.99954 10.0539 6.95087 9.73933 6.83512C9.42477 6.71938 9.1371 6.53904 8.89429 6.30537C8.45192 5.7708 8.23259 5.08207 8.28298 4.38581C8.25884 4.03402 8.30848 3.68103 8.42863 3.35014C8.54878 3.01925 8.7367 2.718 8.97998 2.46625C9.53067 2.00126 10.2363 1.76874 10.951 1.81674C11.3813 1.80891 11.8093 1.88165 12.2136 2.03131" fill="#F6F3F4"/>
</svg>
