<svg width="17" height="14" viewBox="0 0 17 14" fill="none" xmlns="http://www.w3.org/2000/svg">
    <path d="M0.330037 12.2399C1.80333 13.212 3.55795 13.774 5.43844 13.774C11.6278 13.774 15.1222 8.41234 14.9149 3.59749C15.5664 3.11905 16.1291 2.5115 16.5807 1.828C15.981 2.1014 15.3369 2.28367 14.6632 2.3672C15.3517 1.94192 15.8774 1.27361 16.1291 0.476201C15.485 0.871109 14.7742 1.1521 14.0117 1.30399C13.4046 0.635683 12.5384 0.225586 11.5759 0.225586C9.42152 0.225586 7.84458 2.28366 8.3258 4.42528C5.5569 4.28099 3.09894 2.92159 1.45536 0.848326C0.581753 2.38239 1.00375 4.3949 2.48445 5.41255C1.93659 5.39736 1.42575 5.23788 0.974137 4.98727C0.93712 6.57449 2.04764 8.0554 3.6468 8.38196C3.18038 8.51106 2.66213 8.54144 2.14389 8.44271C2.56589 9.80211 3.80227 10.7894 5.26076 10.8198C3.8615 11.9437 2.09207 12.4525 0.322632 12.2323L0.330037 12.2399Z" fill="white"/>
</svg>
