<svg width="15" height="15" viewBox="0 0 15 15" fill="none" xmlns="http://www.w3.org/2000/svg">
<mask id="mask0_1723_6755" style="mask-type:alpha" maskUnits="userSpaceOnUse" x="0" y="0" width="15" height="15">
<rect width="15" height="15" fill="#D9D9D9"/>
</mask>
<g mask="url(#mask0_1723_6755)">
<path d="M7.5 10C8.28125 10 8.94531 9.72656 9.49219 9.17969C10.0391 8.63281 10.3125 7.96875 10.3125 7.1875C10.3125 6.40625 10.0391 5.74219 9.49219 5.19531C8.94531 4.64844 8.28125 4.375 7.5 4.375C6.71875 4.375 6.05469 4.64844 5.50781 5.19531C4.96094 5.74219 4.6875 6.40625 4.6875 7.1875C4.6875 7.96875 4.96094 8.63281 5.50781 9.17969C6.05469 9.72656 6.71875 10 7.5 10ZM7.5 8.875C7.03125 8.875 6.63281 8.71094 6.30469 8.38281C5.97656 8.05469 5.8125 7.65625 5.8125 7.1875C5.8125 6.71875 5.97656 6.32031 6.30469 5.99219C6.63281 5.66406 7.03125 5.5 7.5 5.5C7.96875 5.5 8.36719 5.66406 8.69531 5.99219C9.02344 6.32031 9.1875 6.71875 9.1875 7.1875C9.1875 7.65625 9.02344 8.05469 8.69531 8.38281C8.36719 8.71094 7.96875 8.875 7.5 8.875ZM7.5 11.875C5.97917 11.875 4.59375 11.4505 3.34375 10.6016C2.09375 9.7526 1.1875 8.61458 0.625 7.1875C1.1875 5.76042 2.09375 4.6224 3.34375 3.77344C4.59375 2.92448 5.97917 2.5 7.5 2.5C9.02083 2.5 10.4062 2.92448 11.6562 3.77344C12.9062 4.6224 13.8125 5.76042 14.375 7.1875C13.8125 8.61458 12.9062 9.7526 11.6562 10.6016C10.4062 11.4505 9.02083 11.875 7.5 11.875ZM7.5 10.625C8.67708 10.625 9.75781 10.3151 10.7422 9.69531C11.7266 9.07552 12.4792 8.23958 13 7.1875C12.4792 6.13542 11.7266 5.29948 10.7422 4.67969C9.75781 4.0599 8.67708 3.75 7.5 3.75C6.32292 3.75 5.24219 4.0599 4.25781 4.67969C3.27344 5.29948 2.52083 6.13542 2 7.1875C2.52083 8.23958 3.27344 9.07552 4.25781 9.69531C5.24219 10.3151 6.32292 10.625 7.5 10.625Z" fill="currentColor"/>
</g>
</svg>
