<svg width="15" height="15" viewBox="0 0 15 15" fill="none" xmlns="http://www.w3.org/2000/svg">
<mask id="mask0_1723_6754" style="mask-type:alpha" maskUnits="userSpaceOnUse" x="0" y="0" width="15" height="15">
<rect width="15" height="15" fill="#D9D9D9"/>
</mask>
<g mask="url(#mask0_1723_6754)">
<path d="M10.0625 8.3125L9.15625 7.40625C9.25 6.91667 9.10938 6.45833 8.73438 6.03125C8.35938 5.60417 7.875 5.4375 7.28125 5.53125L6.375 4.625C6.55208 4.54167 6.73177 4.47917 6.91406 4.4375C7.09635 4.39583 7.29167 4.375 7.5 4.375C8.28125 4.375 8.94531 4.64844 9.49219 5.19531C10.0391 5.74219 10.3125 6.40625 10.3125 7.1875C10.3125 7.39583 10.2917 7.59115 10.25 7.77344C10.2083 7.95573 10.1458 8.13542 10.0625 8.3125ZM12.0625 10.2813L11.1562 9.40625C11.5521 9.10417 11.9036 8.77344 12.2109 8.41406C12.5182 8.05469 12.7813 7.64583 13 7.1875C12.4792 6.13542 11.7318 5.29948 10.7578 4.67969C9.78385 4.0599 8.69792 3.75 7.5 3.75C7.19792 3.75 6.90104 3.77083 6.60938 3.8125C6.31771 3.85417 6.03125 3.91667 5.75 4L4.78125 3.03125C5.20833 2.85417 5.64583 2.72135 6.09375 2.63281C6.54167 2.54427 7.01042 2.5 7.5 2.5C9.07292 2.5 10.474 2.9349 11.7031 3.80469C12.9323 4.67448 13.8229 5.80208 14.375 7.1875C14.1354 7.80208 13.8203 8.3724 13.4297 8.89844C13.0391 9.42448 12.5833 9.88542 12.0625 10.2813ZM12.375 14.125L9.75 11.5313C9.38542 11.6458 9.01823 11.7318 8.64844 11.7891C8.27865 11.8464 7.89583 11.875 7.5 11.875C5.92708 11.875 4.52604 11.4401 3.29688 10.5703C2.06771 9.70052 1.17708 8.57292 0.625 7.1875C0.84375 6.63542 1.11979 6.1224 1.45312 5.64844C1.78646 5.17448 2.16667 4.75 2.59375 4.375L0.875 2.625L1.75 1.75L13.25 13.25L12.375 14.125ZM3.46875 5.25C3.16667 5.52083 2.89062 5.81771 2.64062 6.14063C2.39063 6.46354 2.17708 6.8125 2 7.1875C2.52083 8.23958 3.26823 9.07552 4.24219 9.69531C5.21615 10.3151 6.30208 10.625 7.5 10.625C7.70833 10.625 7.91146 10.612 8.10938 10.5859C8.30729 10.5599 8.51042 10.5313 8.71875 10.5L8.15625 9.90625C8.04167 9.9375 7.93229 9.96094 7.82813 9.97656C7.72396 9.99219 7.61458 10 7.5 10C6.71875 10 6.05469 9.72656 5.50781 9.17969C4.96094 8.63281 4.6875 7.96875 4.6875 7.1875C4.6875 7.07292 4.69531 6.96354 4.71094 6.85938C4.72656 6.75521 4.75 6.64583 4.78125 6.53125L3.46875 5.25Z" fill="currentColor"/>
</g>
</svg>
