<svg xmlns="http://www.w3.org/2000/svg" width="50" height="50" viewBox="0 0 50 50" fill="none">
    <mask id="mask0_1190_6399" style="mask-type:alpha" maskUnits="userSpaceOnUse" x="15" y="15" width="21" height="21">
        <rect x="15.5737" y="15.5738" width="19.6721" height="19.6721" fill="#D9D9D9"/>
    </mask>
    <g mask="url(#mask0_1190_6399)">
        <path d="M32.5409 30.2254L31.004 28.6885H31.9671V20.4918H22.8073L20.5942 18.2787C20.7035 17.9508 20.8981 17.6913 21.1782 17.5C21.4583 17.3087 21.7759 17.2131 22.1311 17.2131H31.9671C32.418 17.2131 32.8039 17.3736 33.1249 17.6947C33.446 18.0157 33.6065 18.4016 33.6065 18.8525V28.6885C33.6065 29.0437 33.5109 29.3613 33.3196 29.6414C33.1283 29.9214 32.8688 30.1161 32.5409 30.2254ZM32.377 34.6721L28.0327 30.3279H22.1311C21.6802 30.3279 21.2943 30.1674 20.9733 29.8463C20.6522 29.5253 20.4917 29.1393 20.4917 28.6885V22.7869L16.1475 18.4426L17.295 17.2951L33.5245 33.5246L32.377 34.6721ZM22.1311 28.6885H26.3934L22.1311 24.4262V28.6885ZM18.8524 33.6066C18.4016 33.6066 18.0156 33.446 17.6946 33.125C17.3736 32.804 17.213 32.418 17.213 31.9672V20.4918H18.8524V31.9672H30.3278V33.6066H18.8524Z" fill="#32334C"/>
    </g>
</svg>
