<svg xmlns="http://www.w3.org/2000/svg" width="15" height="16" viewBox="0 0 15 16" fill="none">
    <mask id="mask0_5936_2587" style="mask-type:alpha" maskUnits="userSpaceOnUse" x="0" y="0" width="15" height="16">
        <rect y="0.5" width="15" height="15" fill="#D9D9D9"/>
    </mask>
    <g mask="url(#mask0_5936_2587)">
        <path d="M3.125 14.25C2.78125 14.25 2.48698 14.1276 2.24219 13.8828C1.9974 13.638 1.875 13.3438 1.875 13V4.25C1.875 3.90625 1.9974 3.61198 2.24219 3.36719C2.48698 3.1224 2.78125 3 3.125 3H3.75V1.75H5V3H10V1.75H11.25V3H11.875C12.2188 3 12.513 3.1224 12.7578 3.36719C13.0026 3.61198 13.125 3.90625 13.125 4.25V13C13.125 13.3438 13.0026 13.638 12.7578 13.8828C12.513 14.1276 12.2188 14.25 11.875 14.25H3.125ZM3.125 13H11.875V6.75H3.125V13ZM3.125 5.5H11.875V4.25H3.125V5.5Z" fill="#7A7B92"/>
    </g>
</svg>
