<svg xmlns="http://www.w3.org/2000/svg" width="50" height="50" viewBox="0 0 50 50" fill="none">
    <mask id="mask0_1190_6398" style="mask-type:alpha" maskUnits="userSpaceOnUse" x="15" y="15" width="21" height="21">
        <rect x="15.5737" y="15.5738" width="19.6721" height="19.6721" fill="#D9D9D9"/>
    </mask>
    <g mask="url(#mask0_1190_6398)">
        <path d="M25.4099 33.6066C24.276 33.6066 23.2104 33.3914 22.2131 32.9611C21.2159 32.5307 20.3484 31.9467 19.6107 31.209C18.873 30.4713 18.289 29.6038 17.8586 28.6066C17.4283 27.6093 17.2131 26.5437 17.2131 25.4098C17.2131 24.3852 17.4112 23.3811 17.8074 22.3975C18.2036 21.4139 18.7569 20.5362 19.4672 19.7643C20.1776 18.9925 21.0314 18.3709 22.0287 17.8996C23.026 17.4283 24.1189 17.1926 25.3074 17.1926C25.5943 17.1926 25.888 17.2063 26.1885 17.2336C26.4891 17.2609 26.7965 17.3087 27.1107 17.377C26.9877 17.9918 27.0287 18.5724 27.2336 19.1188C27.4385 19.6653 27.7459 20.1195 28.1558 20.4816C28.5656 20.8436 29.054 21.0929 29.6209 21.2295C30.1879 21.3661 30.7719 21.332 31.373 21.127C31.0178 21.9331 31.069 22.7049 31.5267 23.4426C31.9843 24.1803 32.664 24.5628 33.5656 24.5902C33.5793 24.7404 33.5895 24.8805 33.5963 25.0102C33.6032 25.14 33.6066 25.2801 33.6066 25.4303C33.6066 26.5505 33.3914 27.6059 32.9611 28.5963C32.5308 29.5867 31.9467 30.4542 31.209 31.1988C30.4713 31.9433 29.6038 32.5307 28.6066 32.9611C27.6093 33.3914 26.5437 33.6066 25.4099 33.6066ZM24.1803 23.7705C24.5219 23.7705 24.8122 23.651 25.0512 23.4119C25.2903 23.1728 25.4099 22.8825 25.4099 22.541C25.4099 22.1994 25.2903 21.9091 25.0512 21.6701C24.8122 21.431 24.5219 21.3115 24.1803 21.3115C23.8388 21.3115 23.5485 21.431 23.3094 21.6701C23.0704 21.9091 22.9508 22.1994 22.9508 22.541C22.9508 22.8825 23.0704 23.1728 23.3094 23.4119C23.5485 23.651 23.8388 23.7705 24.1803 23.7705ZM22.541 27.8688C22.8825 27.8688 23.1728 27.7493 23.4119 27.5102C23.651 27.2712 23.7705 26.9809 23.7705 26.6393C23.7705 26.2978 23.651 26.0075 23.4119 25.7684C23.1728 25.5294 22.8825 25.4098 22.541 25.4098C22.1995 25.4098 21.9092 25.5294 21.6701 25.7684C21.431 26.0075 21.3115 26.2978 21.3115 26.6393C21.3115 26.9809 21.431 27.2712 21.6701 27.5102C21.9092 27.7493 22.1995 27.8688 22.541 27.8688ZM27.8689 28.6885C28.1011 28.6885 28.2958 28.61 28.4529 28.4529C28.61 28.2958 28.6885 28.1011 28.6885 27.8688C28.6885 27.6366 28.61 27.4419 28.4529 27.2848C28.2958 27.1277 28.1011 27.0492 27.8689 27.0492C27.6366 27.0492 27.442 27.1277 27.2849 27.2848C27.1278 27.4419 27.0492 27.6366 27.0492 27.8688C27.0492 28.1011 27.1278 28.2958 27.2849 28.4529C27.442 28.61 27.6366 28.6885 27.8689 28.6885ZM25.4099 31.9672C27.0765 31.9672 28.5553 31.3934 29.8463 30.2459C31.1373 29.0984 31.8443 27.6366 31.9672 25.8607C31.2842 25.5601 30.748 25.1503 30.3586 24.6311C29.9693 24.112 29.7063 23.5314 29.5697 22.8893C28.5178 22.7391 27.6161 22.2882 26.8648 21.5369C26.1134 20.7855 25.6489 19.8839 25.4713 18.832C24.3784 18.8046 23.4187 19.0027 22.5922 19.4262C21.7657 19.8497 21.0758 20.3928 20.5226 21.0553C19.9693 21.7179 19.5526 22.4385 19.2726 23.2172C18.9925 23.9959 18.8525 24.7268 18.8525 25.4098C18.8525 27.2268 19.4911 28.7739 20.7685 30.0512C22.0458 31.3285 23.5929 31.9672 25.4099 31.9672Z" fill="#32334C"/>
    </g>
</svg>
