<svg xmlns="http://www.w3.org/2000/svg" width="16" height="16" viewBox="0 0 16 16" fill="none">
    <mask id="mask0_3673_17261" style="mask-type:alpha" maskUnits="userSpaceOnUse" x="0" y="0" width="16" height="16">
        <rect width="16" height="16" fill="#D9D9D9"/>
    </mask>
    <g mask="url(#mask0_3673_17261)">
        <path d="M2.66732 5.33335H13.334V4.00002H2.66732V5.33335ZM1.33398 4.00002C1.33398 3.63335 1.46454 3.31946 1.72565 3.05835C1.98676 2.79724 2.30065 2.66669 2.66732 2.66669H13.334C13.7007 2.66669 14.0145 2.79724 14.2757 3.05835C14.5368 3.31946 14.6673 3.63335 14.6673 4.00002V8.00002H2.66732V12H5.40065V13.3334H2.66732C2.30065 13.3334 1.98676 13.2028 1.72565 12.9417C1.46454 12.6806 1.33398 12.3667 1.33398 12V4.00002ZM9.96732 14.6667L7.13398 11.8334L8.06732 10.9L9.96732 12.7667L13.734 9.00002L14.6673 9.96669L9.96732 14.6667ZM2.66732 4.00002V12V9.00002V10.8834V4.00002Z" fill="#9C98D1"/>
    </g>
</svg>
