<svg width="15" height="16" viewBox="0 0 15 16" fill="none" xmlns="http://www.w3.org/2000/svg">
    <mask id="mask0_5724_3741" style="mask-type:alpha" maskUnits="userSpaceOnUse" x="0" y="0" width="15" height="16">
        <rect y="0.5" width="15" height="15" fill="#D9D9D9"/>
    </mask>
    <g mask="url(#mask0_5724_3741)">
        <path d="M8.79618 4.39809C8.66737 4.39809 8.51097 4.45789 8.32696 4.57749C8.14296 4.6971 8.05095 4.8765 8.05095 5.11571V5.83333H10.2314V8.70382H8.05095V14.5H5.18047V8.70382H3V5.83333H5.18047V4.39809C5.18047 4.03008 5.26327 3.67127 5.42887 3.32166C5.59448 2.97205 5.82909 2.66384 6.1327 2.39703C6.43631 2.13022 6.79052 1.91401 7.19533 1.74841C7.60014 1.5828 8.04175 1.5 8.52017 1.5H10.949V4.39809H8.79618Z" fill="white"/>
    </g>
</svg>
