<svg width="15" height="16" viewBox="0 0 15 16" fill="none" xmlns="http://www.w3.org/2000/svg">
    <mask id="mask0_5724_4166" style="mask-type:alpha" maskUnits="userSpaceOnUse" x="0" y="0" width="15" height="16">
        <rect y="0.5" width="15" height="15" fill="#D9D9D9"/>
    </mask>
    <g mask="url(#mask0_5724_4166)">
        <path d="M13.74 8.14765C13.74 7.68675 13.6986 7.24357 13.6218 6.81812H7.5V9.33538H10.9982C10.8445 10.1449 10.3836 10.8304 9.69226 11.2913V12.9281H11.8018C13.0309 11.7935 13.74 10.1272 13.74 8.14765Z" fill="#32334C"/>
        <path d="M7.49997 14.5C9.25496 14.5 10.7263 13.9209 11.8018 12.9282L9.69223 11.2914C9.11314 11.6814 8.37451 11.9178 7.49997 11.9178C5.80997 11.9178 4.37407 10.7773 3.85998 9.24097H1.69727V10.9191C2.76681 13.0405 4.95907 14.5 7.49997 14.5Z" fill="#32334C"/>
        <path d="M3.85999 9.23508C3.72999 8.84508 3.65317 8.43144 3.65317 8.00008C3.65317 7.56872 3.72999 7.15509 3.85999 6.76509V5.08691H1.69727C1.25409 5.96146 1 6.94827 1 8.00008C1 9.0519 1.25409 10.0387 1.69727 10.9133L3.38135 9.60144L3.85999 9.23508Z" fill="#32334C"/>
        <path d="M7.49997 4.08817C8.45724 4.08817 9.30814 4.41908 9.98768 5.05726L11.849 3.1959C10.7204 2.14409 9.25496 1.5 7.49997 1.5C4.95907 1.5 2.76681 2.95954 1.69727 5.0868L3.85998 6.76498C4.37407 5.22862 5.80997 4.08817 7.49997 4.08817Z" fill="#32334C"/>
    </g>
</svg>
