<svg xmlns="http://www.w3.org/2000/svg" width="16" height="16" viewBox="0 0 16 16" fill="none">
    <mask id="mask0_3712_23805" style="mask-type:alpha" maskUnits="userSpaceOnUse" x="0" y="0" width="16" height="16">
        <rect width="16" height="16" fill="#D9D9D9"/>
    </mask>
    <g mask="url(#mask0_3712_23805)">
        <path d="M0.666016 13.3332V11.4665C0.666016 11.0887 0.763238 10.7415 0.957682 10.4248C1.15213 10.1082 1.41046 9.8665 1.73268 9.69984C2.42157 9.35539 3.12157 9.09706 3.83268 8.92484C4.54379 8.75261 5.26602 8.6665 5.99935 8.6665C6.73268 8.6665 7.4549 8.75261 8.16602 8.92484C8.87713 9.09706 9.57713 9.35539 10.266 9.69984C10.5882 9.8665 10.8466 10.1082 11.041 10.4248C11.2355 10.7415 11.3327 11.0887 11.3327 11.4665V13.3332H0.666016ZM12.666 13.3332V11.3332C12.666 10.8443 12.5299 10.3748 12.2577 9.92484C11.9855 9.47484 11.5993 9.08873 11.0993 8.7665C11.666 8.83317 12.1993 8.94706 12.6993 9.10817C13.1993 9.26928 13.666 9.4665 14.0993 9.69984C14.4993 9.92206 14.8049 10.1693 15.016 10.4415C15.2271 10.7137 15.3327 11.0109 15.3327 11.3332V13.3332H12.666ZM5.99935 7.99984C5.26602 7.99984 4.63824 7.73873 4.11602 7.2165C3.59379 6.69428 3.33268 6.0665 3.33268 5.33317C3.33268 4.59984 3.59379 3.97206 4.11602 3.44984C4.63824 2.92762 5.26602 2.6665 5.99935 2.6665C6.73268 2.6665 7.36046 2.92762 7.88268 3.44984C8.4049 3.97206 8.66602 4.59984 8.66602 5.33317C8.66602 6.0665 8.4049 6.69428 7.88268 7.2165C7.36046 7.73873 6.73268 7.99984 5.99935 7.99984ZM12.666 5.33317C12.666 6.0665 12.4049 6.69428 11.8827 7.2165C11.3605 7.73873 10.7327 7.99984 9.99935 7.99984C9.87713 7.99984 9.72157 7.98595 9.53268 7.95817C9.34379 7.93039 9.18824 7.89984 9.06602 7.8665C9.36602 7.51095 9.59657 7.1165 9.75768 6.68317C9.91879 6.24984 9.99935 5.79984 9.99935 5.33317C9.99935 4.8665 9.91879 4.4165 9.75768 3.98317C9.59657 3.54984 9.36602 3.15539 9.06602 2.79984C9.22157 2.74428 9.37713 2.70817 9.53268 2.6915C9.68824 2.67484 9.84379 2.6665 9.99935 2.6665C10.7327 2.6665 11.3605 2.92762 11.8827 3.44984C12.4049 3.97206 12.666 4.59984 12.666 5.33317ZM1.99935 11.9998H9.99935V11.4665C9.99935 11.3443 9.96879 11.2332 9.90768 11.1332C9.84657 11.0332 9.76602 10.9554 9.66601 10.8998C9.06602 10.5998 8.46046 10.3748 7.84935 10.2248C7.23824 10.0748 6.62157 9.99984 5.99935 9.99984C5.37713 9.99984 4.76046 10.0748 4.14935 10.2248C3.53824 10.3748 2.93268 10.5998 2.33268 10.8998C2.23268 10.9554 2.15213 11.0332 2.09102 11.1332C2.0299 11.2332 1.99935 11.3443 1.99935 11.4665V11.9998ZM5.99935 6.6665C6.36602 6.6665 6.6799 6.53595 6.94102 6.27484C7.20213 6.01373 7.33268 5.69984 7.33268 5.33317C7.33268 4.9665 7.20213 4.65261 6.94102 4.3915C6.6799 4.13039 6.36602 3.99984 5.99935 3.99984C5.63268 3.99984 5.31879 4.13039 5.05768 4.3915C4.79657 4.65261 4.66602 4.9665 4.66602 5.33317C4.66602 5.69984 4.79657 6.01373 5.05768 6.27484C5.31879 6.53595 5.63268 6.6665 5.99935 6.6665Z" fill="#9C98D1"/>
    </g>
</svg>
