<svg xmlns="http://www.w3.org/2000/svg" width="50" height="50" viewBox="0 0 50 50" fill="none">
    <mask id="mask0_1190_6397" style="mask-type:alpha" maskUnits="userSpaceOnUse" x="15" y="15" width="21" height="21">
        <rect x="15.5737" y="15.5738" width="19.6721" height="19.6721" fill="#D9D9D9"/>
    </mask>
    <g mask="url(#mask0_1190_6397)">
        <path d="M25.4099 32.7869C24.3853 32.7869 23.4256 32.5922 22.5308 32.2029C21.636 31.8135 20.8573 31.2876 20.1947 30.625C19.5322 29.9624 19.0062 29.1837 18.6169 28.2889C18.2275 27.3941 18.0328 26.4344 18.0328 25.4098C18.0328 24.3853 18.2275 23.4256 18.6169 22.5307C19.0062 21.6359 19.5322 20.8572 20.1947 20.1947C20.8573 19.5321 21.636 19.0062 22.5308 18.6168C23.4256 18.2275 24.3853 18.0328 25.4099 18.0328V19.6721C23.8115 19.6721 22.4557 20.2288 21.3423 21.3422C20.2289 22.4556 19.6722 23.8115 19.6722 25.4098C19.6722 27.0082 20.2289 28.3641 21.3423 29.4775C22.4557 30.5909 23.8115 31.1475 25.4099 31.1475V32.7869ZM28.6886 29.5082L27.541 28.3402L29.6517 26.2295H22.9509V24.5902H29.6517L27.541 22.459L28.6886 21.3115L32.7869 25.4098L28.6886 29.5082Z" fill="#32334C"/>
    </g>
</svg>
