<svg xmlns="http://www.w3.org/2000/svg" width="18" height="18" viewBox="0 0 18 18" fill="none">
    <path d="M16.6737 18L12.2211 13.5474C11.5737 14.0526 10.8592 14.4474 10.0776 14.7316C9.29605 15.0158 8.46316 15.1579 7.57895 15.1579C5.46316 15.1579 3.67105 14.4237 2.20263 12.9553C0.73421 11.4868 0 9.69474 0 7.57895C0 5.46316 0.73421 3.67105 2.20263 2.20263C3.67105 0.73421 5.46316 0 7.57895 0C9.69474 0 11.4868 0.73421 12.9553 2.20263C14.4237 3.67105 15.1579 5.46316 15.1579 7.57895C15.1579 8.46316 15.0158 9.29605 14.7316 10.0776C14.4474 10.8592 14.0526 11.5737 13.5474 12.2211L18 16.6737L16.6737 18ZM7.57895 13.2632C9.1579 13.2632 10.5 12.7105 11.6053 11.6053C12.7105 10.5 13.2632 9.1579 13.2632 7.57895C13.2632 6 12.7105 4.6579 11.6053 3.55263C10.5 2.44737 9.1579 1.89474 7.57895 1.89474C6 1.89474 4.6579 2.44737 3.55263 3.55263C2.44737 4.6579 1.89474 6 1.89474 7.57895C1.89474 9.1579 2.44737 10.5 3.55263 11.6053C4.6579 12.7105 6 13.2632 7.57895 13.2632Z" fill="#7A7B92"/>
</svg>
