<svg xmlns="http://www.w3.org/2000/svg" width="50" height="50" viewBox="0 0 50 50" fill="none">
    <mask id="mask0_1190_6400" style="mask-type:alpha" maskUnits="userSpaceOnUse" x="15" y="14" width="21" height="21">
        <rect x="15.5737" y="14.7541" width="19.6721" height="19.6721" fill="#D9D9D9"/>
    </mask>
    <g mask="url(#mask0_1190_6400)">
        <path d="M21.3115 32.7869C20.8606 32.7869 20.4747 32.6264 20.1537 32.3053C19.8326 31.9843 19.6721 31.5984 19.6721 31.1475C19.6721 30.6967 19.8326 30.3108 20.1537 29.9898C20.4747 29.6687 20.8606 29.5082 21.3115 29.5082C21.7623 29.5082 22.1482 29.6687 22.4693 29.9898C22.7903 30.3108 22.9508 30.6967 22.9508 31.1475C22.9508 31.5984 22.7903 31.9843 22.4693 32.3053C22.1482 32.6264 21.7623 32.7869 21.3115 32.7869ZM29.5082 32.7869C29.0574 32.7869 28.6714 32.6264 28.3504 32.3053C28.0294 31.9843 27.8688 31.5984 27.8688 31.1475C27.8688 30.6967 28.0294 30.3108 28.3504 29.9898C28.6714 29.6687 29.0574 29.5082 29.5082 29.5082C29.959 29.5082 30.3449 29.6687 30.666 29.9898C30.987 30.3108 31.1475 30.6967 31.1475 31.1475C31.1475 31.5984 30.987 31.9843 30.666 32.3053C30.3449 32.6264 29.959 32.7869 29.5082 32.7869ZM20.6147 19.6721L22.582 23.7705H28.3197L30.5738 19.6721H20.6147ZM19.8361 18.0328H31.9262C32.2404 18.0328 32.4795 18.1728 32.6434 18.4529C32.8074 18.7329 32.8142 19.0164 32.6639 19.3033L29.7541 24.5492C29.6038 24.8224 29.4023 25.0342 29.1496 25.1844C28.8968 25.3347 28.6202 25.4098 28.3197 25.4098H22.2131L21.3115 27.0492H31.1475V28.6885H21.3115C20.6967 28.6885 20.2322 28.4187 19.918 27.8791C19.6038 27.3395 19.5902 26.8033 19.877 26.2705L20.9836 24.2623L18.0328 18.0328H16.3934V16.3934H19.0574L19.8361 18.0328Z" fill="#32334C"/>
    </g>
</svg>
