<svg xmlns="http://www.w3.org/2000/svg" width="9" height="10" viewBox="0 0 9 10" fill="none">
    <path d="M0.925926 10C0.671296 10 0.453318 9.90675 0.271991 9.72024C0.0906636 9.53373 0 9.30952 0 9.04762V3.33333C0 3.07143 0.0906636 2.84722 0.271991 2.66071C0.453318 2.47421 0.671296 2.38095 0.925926 2.38095H1.85185C1.85185 1.72222 2.07755 1.16071 2.52894 0.696429C2.98032 0.232143 3.52623 0 4.16667 0C4.8071 0 5.35301 0.232143 5.8044 0.696429C6.25579 1.16071 6.48148 1.72222 6.48148 2.38095H7.40741C7.66204 2.38095 7.88002 2.47421 8.06134 2.66071C8.24267 2.84722 8.33333 3.07143 8.33333 3.33333V9.04762C8.33333 9.30952 8.24267 9.53373 8.06134 9.72024C7.88002 9.90675 7.66204 10 7.40741 10H0.925926ZM0.925926 9.04762H7.40741V3.33333H0.925926V9.04762ZM4.16667 6.19048C4.8071 6.19048 5.35301 5.95833 5.8044 5.49405C6.25579 5.02976 6.48148 4.46825 6.48148 3.80952H5.55556C5.55556 4.20635 5.42053 4.54365 5.15046 4.82143C4.8804 5.09921 4.55247 5.2381 4.16667 5.2381C3.78086 5.2381 3.45293 5.09921 3.18287 4.82143C2.91281 4.54365 2.77778 4.20635 2.77778 3.80952H1.85185C1.85185 4.46825 2.07755 5.02976 2.52894 5.49405C2.98032 5.95833 3.52623 6.19048 4.16667 6.19048ZM2.77778 2.38095H5.55556C5.55556 1.98413 5.42053 1.64683 5.15046 1.36905C4.8804 1.09127 4.55247 0.952381 4.16667 0.952381C3.78086 0.952381 3.45293 1.09127 3.18287 1.36905C2.91281 1.64683 2.77778 1.98413 2.77778 2.38095Z" fill="#9C98D1"/>
</svg>
