<svg xmlns="http://www.w3.org/2000/svg" width="16" height="16" viewBox="0 0 16 16" fill="none">
    <mask id="mask0_3673_17260" style="mask-type:alpha" maskUnits="userSpaceOnUse" x="0" y="0" width="16" height="16">
        <rect width="16" height="16" fill="#D9D9D9"/>
    </mask>
    <g mask="url(#mask0_3673_17260)">
        <path d="M11.134 9.66665L13.6673 7.49998L15.6673 7.66665L12.734 10.2166L13.6006 14L11.9007 12.9666L11.134 9.66665ZM9.56732 4.79998L8.86732 3.16665L9.63398 1.33331L11.1673 4.94998L9.56732 4.79998ZM4.90065 11.2166L7.00065 9.94998L9.10065 11.2333L8.55065 8.83331L10.4007 7.23331L7.96732 7.01665L7.00065 4.74998L6.03398 6.99998L3.60065 7.21665L5.45065 8.83331L4.90065 11.2166ZM2.88398 14L3.96732 9.31665L0.333984 6.16665L5.13398 5.74998L7.00065 1.33331L8.86732 5.74998L13.6673 6.16665L10.034 9.31665L11.1173 14L7.00065 11.5166L2.88398 14Z" fill="#9C98D1"/>
    </g>
</svg>
