<svg xmlns="http://www.w3.org/2000/svg" width="15" height="15" viewBox="0 0 15 15" fill="none">
    <mask id="mask0_3673_18559" style="mask-type:alpha" maskUnits="userSpaceOnUse" x="0" y="0" width="15" height="15">
        <rect width="15" height="15" fill="#D9D9D9"/>
    </mask>
    <g mask="url(#mask0_3673_18559)">
        <path d="M9.5625 10.4375L10.4375 9.5625L8.125 7.25V4.375H6.875V7.75L9.5625 10.4375ZM7.5 13.75C6.63542 13.75 5.82292 13.5859 5.0625 13.2578C4.30208 12.9297 3.64062 12.4844 3.07812 11.9219C2.51562 11.3594 2.07031 10.6979 1.74219 9.9375C1.41406 9.17708 1.25 8.36458 1.25 7.5C1.25 6.63542 1.41406 5.82292 1.74219 5.0625C2.07031 4.30208 2.51562 3.64062 3.07812 3.07812C3.64062 2.51562 4.30208 2.07031 5.0625 1.74219C5.82292 1.41406 6.63542 1.25 7.5 1.25C8.36458 1.25 9.17708 1.41406 9.9375 1.74219C10.6979 2.07031 11.3594 2.51562 11.9219 3.07812C12.4844 3.64062 12.9297 4.30208 13.2578 5.0625C13.5859 5.82292 13.75 6.63542 13.75 7.5C13.75 8.36458 13.5859 9.17708 13.2578 9.9375C12.9297 10.6979 12.4844 11.3594 11.9219 11.9219C11.3594 12.4844 10.6979 12.9297 9.9375 13.2578C9.17708 13.5859 8.36458 13.75 7.5 13.75ZM7.5 12.5C8.88542 12.5 10.0651 12.013 11.0391 11.0391C12.013 10.0651 12.5 8.88542 12.5 7.5C12.5 6.11458 12.013 4.9349 11.0391 3.96094C10.0651 2.98698 8.88542 2.5 7.5 2.5C6.11458 2.5 4.9349 2.98698 3.96094 3.96094C2.98698 4.9349 2.5 6.11458 2.5 7.5C2.5 8.88542 2.98698 10.0651 3.96094 11.0391C4.9349 12.013 6.11458 12.5 7.5 12.5Z" fill="#9C98D1"/>
    </g>
</svg>
