<svg width="29" height="29" viewBox="0 0 29 29" fill="none" xmlns="http://www.w3.org/2000/svg">
    <mask id="mask0_6415_2095" style="mask-type:alpha" maskUnits="userSpaceOnUse" x="4" y="4" width="21" height="21">
        <rect x="4.5" y="4.5" width="20" height="20" fill="#D9D9D9"/>
    </mask>
    <g mask="url(#mask0_6415_2095)">
        <path d="M10.334 22C9.87565 22 9.48329 21.8368 9.1569 21.5104C8.83051 21.184 8.66732 20.7917 8.66732 20.3333V9.5H7.83398V7.83333H12.0007V7H17.0007V7.83333H21.1673V9.5H20.334V20.3333C20.334 20.7917 20.1708 21.184 19.8444 21.5104C19.518 21.8368 19.1257 22 18.6673 22H10.334ZM18.6673 9.5H10.334V20.3333H18.6673V9.5ZM12.0007 18.6667H13.6673V11.1667H12.0007V18.6667ZM15.334 18.6667H17.0007V11.1667H15.334V18.6667Z" fill="#F2295B"/>
    </g>
</svg>
