<svg xmlns="http://www.w3.org/2000/svg" width="123" height="30" viewBox="0 0 123 30" fill="none">
    <path d="M51.3369 27.3238L53.5602 24.3037V5.66716L51.3221 2.72067L50.3062 1.35055C50.0534 0.989324 49.719 0.692948 49.33 0.485574C48.9411 0.2782 48.5087 0.165695 48.0681 0.157227H3.79268C2.71053 0.25487 1.7093 0.771574 1.00242 1.59719C0.295539 2.42281 -0.0610808 3.49204 0.00857955 4.57696V25.4234C-0.057298 26.5074 0.300673 27.5746 1.00683 28.3993C1.71298 29.2241 2.71199 29.7418 3.79268 29.8431H48.0681C48.5024 29.8431 48.9308 29.7419 49.3192 29.5476C49.7077 29.3532 50.0456 29.0711 50.3062 28.7234L51.3369 27.3238Z" fill="#F2295B"/>
    <path d="M119.392 0H59.1007C58.6563 0.00738338 58.2199 0.119977 57.8271 0.328611C57.4343 0.537244 57.0962 0.836017 56.8403 1.20059L55.8209 2.57905L53.5605 5.54348V24.3676L55.8209 27.4061L56.8403 28.7846C57.0963 29.1502 57.4341 29.4506 57.8266 29.6616C58.2191 29.8727 58.6555 29.9886 59.1007 30H119.392C119.81 29.9737 120.219 29.8644 120.595 29.6782C120.971 29.492 121.306 29.2328 121.581 28.9156C121.855 28.5984 122.065 28.2295 122.196 27.8305C122.328 27.4314 122.379 27.01 122.347 26.5909V3.40909C122.379 2.98997 122.328 2.56863 122.196 2.16954C122.065 1.77045 121.855 1.40159 121.581 1.08438C121.306 0.76718 120.971 0.507965 120.595 0.321807C120.219 0.135649 119.81 0.026261 119.392 0Z" fill="#524ABC"/>
    <path d="M15.1626 11.8974V21.3612H11.0809V11.8974H6.91016V8.63867H19.3185V11.8974H15.1626Z" fill="#F6F3F4"/>
    <path d="M28.6757 21.3613L28.1426 19.5978H23.7001L23.167 21.3613H19.0059L23.6261 8.7959H28.3647L32.9849 21.3613H28.6757ZM24.5442 16.7761H27.2985L25.9658 12.3671H25.8917L24.5442 16.7761Z" fill="#F6F3F4"/>
    <path d="M43.9334 9.02976C44.845 9.34583 45.6515 9.90905 46.2633 10.6569C46.8434 11.4033 47.1458 12.3292 47.1186 13.2752H43.2256C43.227 13.0199 43.1626 12.7686 43.0386 12.5457C42.9146 12.3227 42.7351 12.1358 42.5177 12.0031C41.9271 11.6415 41.2385 11.4742 40.5484 11.5246C39.8583 11.575 39.2011 11.8405 38.6689 12.2841C38.4122 12.5783 38.2161 12.9207 38.0921 13.2914C37.9681 13.6621 37.9185 14.0538 37.9463 14.4438V15.6124C37.9185 16.0025 37.9681 16.3942 38.0921 16.7649C38.2161 17.1356 38.4122 17.4779 38.6689 17.7721C39.2015 18.214 39.8574 18.4797 40.5465 18.5326C41.2357 18.5856 41.9242 18.4233 42.5177 18.068C42.7303 17.9483 42.9077 17.7746 43.032 17.5642C43.1563 17.3538 43.223 17.1143 43.2256 16.8698H40.3648V14.2959H47.0891V21.4259H44.9951L44.597 20.1833C43.3209 21.2079 41.7176 21.7335 40.0846 21.6626C39.2227 21.7173 38.3588 21.5932 37.5469 21.2979C36.735 21.0027 35.9925 20.5427 35.3657 19.9466C34.2239 18.5831 33.6578 16.8263 33.7879 15.0503C33.7255 14.153 33.8537 13.2526 34.1638 12.4086C34.4739 11.5646 34.959 10.7961 35.5869 10.154C37.0083 8.96791 38.8296 8.37481 40.6744 8.49723C41.7851 8.47727 42.8898 8.66281 43.9334 9.04456" fill="#F6F3F4"/>
    <path d="M69.2919 9.17178C69.9174 9.51996 70.4342 10.0317 70.7858 10.6511C71.1372 11.3067 71.317 12.0391 71.3086 12.7813V13.0179C71.317 13.7601 71.1372 14.4925 70.7858 15.1481C70.4329 15.7666 69.9164 16.278 69.2919 16.6274C68.6451 16.9882 67.9129 17.172 67.1706 17.16H64.1082V21.3612H60V8.63923H67.1706C67.9129 8.62718 68.6451 8.81099 69.2919 9.17178ZM64.1082 14.2458H65.7962C65.972 14.2613 66.1492 14.2404 66.3164 14.1844C66.4836 14.1284 66.6371 14.0384 66.7673 13.9203C66.8804 13.7994 66.9678 13.6573 67.0242 13.5022C67.0807 13.3472 67.1051 13.1825 67.0959 13.0179V12.87C67.1071 12.703 67.0838 12.5355 67.0273 12.3778C66.9707 12.2201 66.8823 12.0755 66.7673 11.9529C66.6352 11.8377 66.4814 11.7496 66.3147 11.6937C66.148 11.6379 65.9718 11.6153 65.7962 11.6274H64.1082V14.2458Z" fill="#F6F3F4"/>
    <path d="M73.6641 8.63867H84.5412V11.6891H77.7063V13.445H83.5417V16.3615H77.7063V18.3108H84.6588V21.3612H73.6641V8.63867Z" fill="#F6F3F4"/>
    <path d="M95.5961 21.3612L95.0476 19.512H90.6004L90.0816 21.3612H85.916L90.6004 8.63867H95.3293L99.8951 21.3612H95.5961ZM91.4602 16.7456H94.2027L92.8833 12.3075H92.8092L91.4602 16.7456Z" fill="#F6F3F4"/>
    <path d="M110.173 8.63867H115.2L110.674 13.8765L115.288 21.3612H110.497L107.873 16.7037L105.677 18.5191V21.3612H101.623V8.63867H105.677V14.0699L110.173 8.63867Z" fill="#F6F3F4"/>
</svg>
