<?xml version="1.0" encoding="UTF-8" standalone="no"?>
<!-- Created with Inkscape (http://www.inkscape.org/) -->

<svg
   version="1.1"
   id="svg2"
   width="377.95258"
   height="79.933334"
   viewBox="0 0 377.95257 79.933334"
   sodipodi:docname="ATLANSE_PT_logo.ai"
   xmlns:inkscape="http://www.inkscape.org/namespaces/inkscape"
   xmlns:sodipodi="http://sodipodi.sourceforge.net/DTD/sodipodi-0.dtd"
   xmlns="http://www.w3.org/2000/svg"
   xmlns:svg="http://www.w3.org/2000/svg">
  <defs
     id="defs6">
    <clipPath
       clipPathUnits="userSpaceOnUse"
       id="clipPath18">
      <path
         d="M 0,198.425 H 425.197 V 0 H 0 Z"
         id="path16" />
    </clipPath>
  </defs>
  <sodipodi:namedview
     id="namedview4"
     pagecolor="#ffffff"
     bordercolor="#000000"
     borderopacity="0.25"
     inkscape:showpageshadow="2"
     inkscape:pageopacity="0.0"
     inkscape:pagecheckerboard="0"
     inkscape:deskcolor="#d1d1d1"
     showgrid="false" />
  <g
     id="g10"
     inkscape:groupmode="layer"
     inkscape:label="Page 1"
     transform="matrix(1.3333333,0,0,-1.3333333,-94.48835,172.25013)">
    <g
       id="g12">
      <g
         id="g14"
         clip-path="url(#clipPath18)">
        <g
           id="g20"
           transform="translate(192.1415,93.5729)">
          <path
             d="m 0,0 c -1.042,-0.553 -2.153,-0.83 -3.333,-0.83 -2.09,0 -3.134,1.062 -3.134,3.186 v 7.889 H 0 v 7.627 h -6.467 v 7.574 h -9.769 v -7.574 h -4.022 v -7.627 h 4.022 V 1.259 c 0,-3.343 0.924,-5.938 2.768,-7.784 1.846,-1.845 4.475,-2.768 7.889,-2.768 1.917,0 3.775,0.35 5.579,1.043 z"
             style="fill:#001eeb;fill-opacity:1;fill-rule:nonzero;stroke:none"
             id="path22" />
        </g>
        <g
           id="g24"
           transform="translate(342.1256,110.2016)">
          <path
             d="m 0,0 c 0.344,0.386 0.516,0.875 0.516,1.464 0,0.602 -0.172,1.095 -0.516,1.482 -0.344,0.387 -0.798,0.58 -1.363,0.58 -0.528,0 -0.975,-0.196 -1.344,-0.589 -0.368,-0.393 -0.552,-0.884 -0.552,-1.473 0,-0.577 0.184,-1.062 0.552,-1.455 0.369,-0.392 0.816,-0.589 1.344,-0.589 0.565,0 1.019,0.193 1.363,0.58 m 2.679,5.027 c 0.854,-0.914 1.28,-2.102 1.28,-3.563 0,-1.449 -0.426,-2.63 -1.28,-3.545 -0.853,-0.914 -1.924,-1.372 -3.213,-1.372 -1.129,0 -2.038,0.344 -2.725,1.031 v -3.885 h -3.444 v 12.43 h 3.444 V 5.367 c 0.687,0.688 1.596,1.032 2.725,1.032 1.289,0 2.36,-0.458 3.213,-1.372"
             style="fill:#00e1b9;fill-opacity:1;fill-rule:nonzero;stroke:none"
             id="path26" />
        </g>
        <g
           id="g28"
           transform="translate(354.3307,107.4302)">
          <path
             d="m 0,0 c -0.847,-0.454 -1.731,-0.681 -2.651,-0.681 -1.203,0 -2.131,0.325 -2.781,0.976 -0.65,0.65 -0.976,1.565 -0.976,2.743 v 3.167 h -1.418 v 2.689 h 1.418 v 2.67 h 3.444 v -2.67 h 2.467 V 6.205 h -2.467 v -2.78 c 0,-0.749 0.367,-1.123 1.104,-1.123 0.417,0 0.81,0.098 1.179,0.295 z"
             style="fill:#00e1b9;fill-opacity:1;fill-rule:nonzero;stroke:none"
             id="path30" />
        </g>
        <path
           d="m 195.224,119.019 h 9.769 V 85.063 h -9.769 z"
           style="fill:#001eeb;fill-opacity:1;fill-rule:nonzero;stroke:none"
           id="path32" />
        <g
           id="g34"
           transform="translate(227.4026,94.1002)">
          <path
             d="m 0,0 c 1.045,1.114 1.567,2.49 1.567,4.128 0,1.671 -0.522,3.064 -1.567,4.178 -1.045,1.115 -2.317,1.672 -3.815,1.672 -1.601,0 -2.889,-0.549 -3.865,-1.645 -0.975,-1.097 -1.463,-2.5 -1.463,-4.205 0,-1.672 0.488,-3.057 1.463,-4.154 0.976,-1.097 2.264,-1.645 3.865,-1.645 1.498,0 2.77,0.557 3.815,1.671 M 11.336,-9.037 H 1.567 v 2.142 c -1.951,-1.951 -4.528,-2.926 -7.731,-2.926 -3.658,0 -6.696,1.297 -9.116,3.892 -2.422,2.595 -3.632,5.947 -3.632,10.057 0,4.144 1.21,7.513 3.632,10.107 2.42,2.596 5.458,3.893 9.116,3.893 3.203,0 5.78,-0.975 7.731,-2.926 v 2.142 h 9.769 z"
             style="fill:#001eeb;fill-opacity:1;fill-rule:nonzero;stroke:none"
             id="path36" />
        </g>
        <g
           id="g38"
           transform="translate(157.6107,94.1002)">
          <path
             d="m 0,0 c 1.045,1.114 1.567,2.49 1.567,4.128 0,1.671 -0.522,3.064 -1.567,4.178 -1.045,1.115 -2.317,1.672 -3.815,1.672 -1.601,0 -2.889,-0.549 -3.865,-1.645 -0.975,-1.097 -1.463,-2.5 -1.463,-4.205 0,-1.672 0.488,-3.057 1.463,-4.154 0.976,-1.097 2.264,-1.645 3.865,-1.645 1.498,0 2.77,0.557 3.815,1.671 M 11.336,-9.037 H 1.567 v 2.142 c -1.951,-1.951 -4.528,-2.926 -7.731,-2.926 -3.658,0 -6.696,1.297 -9.116,3.892 -2.422,2.595 -3.632,5.947 -3.632,10.057 0,4.144 1.21,7.513 3.632,10.107 2.42,2.596 5.458,3.893 9.116,3.893 3.203,0 5.78,-0.975 7.731,-2.926 v 2.142 h 9.769 z"
             style="fill:#001eeb;fill-opacity:1;fill-rule:nonzero;stroke:none"
             id="path40" />
        </g>
        <g
           id="g42"
           transform="translate(268.5663,109.3026)">
          <path
             d="M 0,0 C 1.812,-1.95 2.717,-4.58 2.717,-7.888 V -24.24 h -9.821 v 14.262 c 0,1.254 -0.34,2.264 -1.019,3.03 -0.679,0.766 -1.575,1.149 -2.691,1.149 -1.322,0 -2.377,-0.488 -3.16,-1.463 -0.784,-0.975 -1.175,-2.368 -1.175,-4.179 V -24.24 h -9.769 V 2.142 h 9.769 v -2.664 c 2.124,2.298 4.771,3.447 7.94,3.447 C -4.213,2.925 -1.81,1.95 0,0"
             style="fill:#001eeb;fill-opacity:1;fill-rule:nonzero;stroke:none"
             id="path44" />
        </g>
        <g
           id="g46"
           transform="translate(283.9256,93.7347)">
          <path
             d="m 0,0 c 0.452,-1.707 1.758,-2.56 3.917,-2.56 0.872,0 1.55,0.148 2.037,0.444 0.488,0.296 0.733,0.671 0.733,1.124 0,0.801 -0.802,1.323 -2.403,1.567 l -5.277,0.888 c -5.225,0.94 -7.836,3.552 -7.836,7.836 0,2.821 1.115,5.059 3.344,6.713 2.229,1.654 5.049,2.481 8.462,2.481 3.448,0 6.251,-0.644 8.411,-1.933 2.16,-1.289 3.553,-3.099 4.178,-5.433 L 6.79,9.403 c -0.103,0.662 -0.496,1.263 -1.175,1.803 -0.679,0.539 -1.541,0.809 -2.586,0.809 -1.636,0 -2.455,-0.522 -2.455,-1.567 0,-0.696 0.574,-1.167 1.724,-1.41 L 8.306,7.836 c 2.611,-0.487 4.562,-1.454 5.85,-2.899 1.29,-1.445 1.933,-3.265 1.933,-5.459 0,-2.821 -1.157,-5.015 -3.474,-6.583 -2.315,-1.567 -5.285,-2.35 -8.907,-2.35 -3.482,0 -6.39,0.635 -8.724,1.906 -2.333,1.272 -3.779,3.178 -4.336,5.721 z"
             style="fill:#001eeb;fill-opacity:1;fill-rule:nonzero;stroke:none"
             id="path48" />
        </g>
        <g
           id="g50"
           transform="translate(313.1793,103.7131)">
          <path
             d="M 0,0 C -0.836,-0.592 -1.427,-1.411 -1.776,-2.456 H 7.209 C 6.547,-0.227 5.12,0.888 2.925,0.888 1.812,0.888 0.836,0.591 0,0 M 16.664,-7.836 H -1.881 c 0.314,-1.289 0.888,-2.291 1.724,-3.004 0.836,-0.714 1.864,-1.071 3.082,-1.071 2.229,0 3.779,0.853 4.65,2.559 l 8.724,-1.724 c -1.079,-2.751 -2.786,-4.832 -5.12,-6.242 -2.332,-1.411 -5.084,-2.116 -8.254,-2.116 -4.039,0 -7.443,1.306 -10.212,3.919 -2.77,2.611 -4.154,5.955 -4.154,10.03 0,4.109 1.384,7.47 4.154,10.082 2.769,2.612 6.173,3.918 10.212,3.918 4.041,0 7.332,-1.289 9.874,-3.866 2.543,-2.577 3.831,-6.13 3.865,-10.657 z"
             style="fill:#001eeb;fill-opacity:1;fill-rule:nonzero;stroke:none"
             id="path52" />
        </g>
        <g
           id="g54"
           transform="translate(332.3482,111.6747)">
          <path
             d="M 0,0 C 0,1.058 -0.857,1.915 -1.915,1.915 -2.973,1.915 -3.83,1.058 -3.83,0 c 0,-1.058 0.857,-1.915 1.915,-1.915 C -0.857,-1.915 0,-1.058 0,0"
             style="fill:#00e1b9;fill-opacity:1;fill-rule:nonzero;stroke:none"
             id="path56" />
        </g>
        <g
           id="g58"
           transform="translate(74.6613,81.2346)">
          <path
             d="m 0,0 -3.214,-5.566 c -1.651,-2.857 0.413,-6.431 3.715,-6.431 H 48.87 L 41.943,0 Z M 63.534,-5.566 48.703,20.121 39.349,36.325 32.422,24.326 38.216,14.292 46.467,0 53.394,-11.997 h 6.427 c 3.301,0 5.363,3.574 3.713,6.431 M 33.875,45.808 c -1.651,2.86 -5.778,2.86 -7.428,0 L 11.616,20.121 2.262,3.92 h 13.852 l 4.101,7.101 9.945,17.225 6.927,11.997 z"
             style="fill:#00e1b9;fill-opacity:1;fill-rule:evenodd;stroke:none"
             id="path60" />
        </g>
      </g>
    </g>
  </g>
</svg>
